<?xml version="1.0" encoding="UTF-8"?><svg xmlns="http://www.w3.org/2000/svg" xmlns:xlink="http://www.w3.org/1999/xlink" viewBox="0 0 1120 678.56"><defs><style>.h{opacity:.7;}.i{opacity:.5;}.j{opacity:.9;}.k{fill:#0e0d0d;}.l{opacity:.2;}.m{opacity:.65;}.n{opacity:.05;}.o{opacity:.35;}.p{fill:url(#f);}.q{opacity:.8;}.r{fill:#272728;}.s{opacity:.15;}.t{opacity:.45;}.u{opacity:.4;}.v{fill:#5e5f5d;}.w{fill:url(#g);}.x{opacity:.75;}.y{opacity:.55;}.a`{clip-path:url(#d);}.aa{opacity:.1;}.ab{fill:none;}.ac{opacity:.6;}.ad{opacity:.25;}.ae{opacity:.3;}</style><clipPath id="d"><rect class="ab" width="1120" height="678.56"/></clipPath><linearGradient id="f" x1="38.22" y1="619.83" x2="89.62" y2="619.83" gradientTransform="matrix(1, 0, 0, 1, 0, 0)" gradientUnits="userSpaceOnUse"><stop offset="0" stop-color="#000"/><stop offset="1" stop-color="#413f3e"/></linearGradient><linearGradient id="g" x1="66.82" y1="622.45" x2="77.1" y2="622.45" xlink:href="#f"/></defs><g id="a"/><g id="b"><g id="c"><g class="a`"><g><polygon class="ab" points="175.36 527.79 181.64 532.52 181.64 523.2 175.36 518.46 175.36 527.79"/><g class="n"><g><polygon class="k" points="702.95 350.43 709.23 355.16 709.23 330.92 711.74 329.91 711.74 292.41 683.75 271.31 683.75 304.87 702.95 319.34 702.95 350.43"/><polygon class="v" points="711.74 329.91 715.16 328.54 717.67 330.43 717.67 290.03 711.74 292.41 711.74 329.91"/><polygon class="r" points="717.67 290.03 689.67 268.93 683.75 271.31 711.74 292.41 717.67 290.03"/><polygon class="k" points="743.15 380.73 749.43 385.46 749.43 361.22 751.94 360.21 751.94 322.7 723.95 301.61 723.95 335.17 743.15 349.64 743.15 380.73"/><polygon class="v" points="751.94 360.21 755.36 358.84 757.87 360.73 757.87 320.33 751.94 322.7 751.94 360.21"/><polygon class="r" points="757.87 320.33 729.87 299.23 723.95 301.61 751.94 322.7 757.87 320.33"/><polygon class="k" points="783.35 411.02 789.63 415.76 789.63 391.52 792.14 390.51 792.14 353 764.15 331.9 764.15 365.47 783.35 379.94 783.35 411.02"/><polygon class="v" points="792.14 390.51 795.56 389.14 798.06 391.03 798.06 350.62 792.14 353 792.14 390.51"/><polygon class="r" points="798.06 350.62 770.07 329.53 764.15 331.9 792.14 353 798.06 350.62"/><polygon class="k" points="823.55 441.32 829.83 446.05 829.83 421.81 832.34 420.81 832.34 383.3 804.35 362.2 804.35 395.76 823.55 410.24 823.55 441.32"/><polygon class="v" points="832.34 420.81 835.76 419.44 838.26 421.33 838.26 380.92 832.34 383.3 832.34 420.81"/><polygon class="r" points="838.26 380.92 810.27 359.82 804.35 362.2 832.34 383.3 838.26 380.92"/><polygon class="k" points="582.35 259.54 588.63 264.27 588.63 240.03 591.14 239.02 591.14 201.51 563.15 180.42 563.15 213.98 582.35 228.45 582.35 259.54"/><polygon class="v" points="591.14 239.02 594.56 237.65 597.07 239.54 597.07 199.14 591.14 201.51 591.14 239.02"/><polygon class="r" points="597.07 199.14 569.07 178.04 563.15 180.42 591.14 201.51 597.07 199.14"/><polygon class="k" points="542.15 229.24 548.44 233.97 548.43 209.73 550.94 208.73 550.94 171.22 522.95 150.12 522.95 183.68 542.15 198.15 542.15 229.24"/><polygon class="v" points="550.94 208.73 554.36 207.35 556.87 209.24 556.87 168.84 550.94 171.22 550.94 208.73"/><polygon class="r" points="556.87 168.84 528.87 147.74 522.95 150.12 550.94 171.22 556.87 168.84"/><polygon class="k" points="501.95 198.94 508.24 203.67 508.24 179.43 510.74 178.43 510.74 140.92 482.75 119.82 482.75 153.38 501.95 167.86 501.95 198.94"/><polygon class="v" points="510.74 178.43 514.16 177.06 516.67 178.95 516.67 138.54 510.74 140.92 510.74 178.43"/><polygon class="r" points="516.67 138.54 488.67 117.44 482.75 119.82 510.74 140.92 516.67 138.54"/><polygon class="k" points="461.75 168.64 468.04 173.38 468.04 149.14 470.54 148.13 470.54 110.62 442.55 89.52 442.55 123.09 461.75 137.56 461.75 168.64"/><polygon class="v" points="470.54 148.13 473.96 146.76 476.47 148.65 476.47 108.24 470.54 110.62 470.54 148.13"/><polygon class="r" points="476.47 108.24 448.48 87.15 442.55 89.52 470.54 110.62 476.47 108.24"/><polygon class="k" points="421.55 138.35 427.84 143.08 427.84 118.84 430.34 117.83 430.34 80.32 402.35 59.22 402.35 92.79 421.55 107.26 421.55 138.35"/><polygon class="v" points="430.34 117.83 433.76 116.46 436.27 118.35 436.27 77.95 430.34 80.32 430.34 117.83"/><polygon class="r" points="436.27 77.95 408.28 56.85 402.35 59.22 430.34 80.32 436.27 77.95"/><polygon class="k" points="381.35 108.05 387.64 112.78 387.64 88.54 390.14 87.53 390.14 50.03 362.15 28.93 362.15 62.49 381.36 76.96 381.35 108.05"/><polygon class="v" points="390.14 87.53 393.56 86.16 396.07 88.05 396.07 47.65 390.14 50.03 390.14 87.53"/><polygon class="r" points="396.07 47.65 368.08 26.55 362.15 28.93 390.14 50.03 396.07 47.65"/><polygon class="k" points="863.75 471.62 870.03 476.35 870.03 452.11 872.54 451.1 872.54 413.6 844.55 392.5 844.55 426.06 863.75 440.53 863.75 471.62"/><polygon class="v" points="872.54 451.1 875.96 449.73 878.46 451.62 878.46 411.22 872.54 413.6 872.54 451.1"/><polygon class="r" points="878.46 411.22 850.47 390.12 844.55 392.5 872.54 413.6 878.46 411.22"/><polygon class="k" points="903.95 501.92 910.23 506.65 910.23 482.41 912.74 481.4 912.74 443.89 884.75 422.79 884.75 456.36 903.95 470.83 903.95 501.92"/><polygon class="v" points="912.74 481.4 916.16 480.03 918.66 481.92 918.66 441.52 912.74 443.89 912.74 481.4"/><polygon class="r" points="918.66 441.52 890.67 420.42 884.75 422.79 912.74 443.89 918.66 441.52"/><polygon class="k" points="944.15 532.21 950.43 536.95 950.43 512.71 952.94 511.7 952.94 474.19 924.95 453.09 924.95 486.66 944.15 501.13 944.15 532.21"/><polygon class="v" points="952.94 511.7 956.36 510.33 958.86 512.22 958.86 471.81 952.94 474.19 952.94 511.7"/><polygon class="r" points="958.86 471.81 930.87 450.72 924.95 453.09 952.94 474.19 958.86 471.81"/><polygon class="k" points="993.14 542 993.14 504.49 965.14 483.39 965.14 516.95 984.35 531.43 984.35 562.51 990.63 567.25 990.63 543 993.14 542"/><polygon class="v" points="993.14 542 996.56 540.63 999.06 542.52 999.06 502.11 993.14 504.49 993.14 542"/><polygon class="r" points="999.06 502.11 971.07 481.01 965.14 483.39 993.14 504.49 999.06 502.11"/><polygon class="k" points="1024.55 592.81 1033.34 599.43 1033.34 534.79 1005.34 513.69 1005.34 547.25 1024.55 561.72 1024.55 592.81"/><polygon class="v" points="1033.34 599.43 1039.26 597.06 1039.26 532.41 1033.34 534.79 1033.34 599.43"/><polygon class="r" points="1039.26 532.41 1011.27 511.31 1005.34 513.69 1033.34 534.79 1039.26 532.41"/><polygon class="k" points="1045.54 543.99 1045.54 608.63 1073.54 629.73 1073.54 565.08 1045.54 543.99"/><polygon class="v" points="1079.46 562.71 1073.54 565.08 1073.54 629.73 1079.46 627.35 1079.46 562.71"/><polygon class="r" points="1079.46 562.71 1051.47 541.61 1045.54 543.99 1073.54 565.08 1079.46 562.71"/><polygon class="k" points="622.55 289.83 628.83 294.57 628.83 270.33 631.34 269.32 631.34 231.81 603.35 210.71 603.35 244.28 622.55 258.75 622.55 289.83"/><polygon class="v" points="631.34 269.32 634.76 267.95 637.27 269.84 637.27 229.43 631.34 231.81 631.34 269.32"/><polygon class="r" points="637.27 229.43 609.27 208.34 603.35 210.71 631.34 231.81 637.27 229.43"/><polygon class="k" points="662.75 320.13 669.03 324.86 669.03 300.62 671.54 299.62 671.54 262.11 643.55 241.01 643.55 274.57 662.75 289.05 662.75 320.13"/><polygon class="v" points="671.54 299.62 674.96 298.25 677.47 300.14 677.47 259.73 671.54 262.11 671.54 299.62"/><polygon class="r" points="677.47 259.73 649.47 238.63 643.55 241.01 671.54 262.11 677.47 259.73"/></g></g><g class="aa"><g><polygon class="k" points="688.24 348.66 688.24 379.74 694.52 384.48 694.52 360.24 697.03 359.23 697.03 321.72 669.03 300.62 669.03 324.86 669.03 334.19 688.24 348.66"/><polygon class="v" points="697.03 359.23 700.44 357.86 702.95 359.75 702.95 350.43 702.95 319.34 697.03 321.72 697.03 359.23"/><polygon class="r" points="671.54 299.62 669.03 300.62 697.03 321.72 702.95 319.34 683.75 304.87 677.47 300.14 674.96 298.25 671.54 299.62"/><polygon class="k" points="648.04 318.36 648.04 349.45 654.32 354.18 654.32 329.94 656.83 328.93 656.83 291.42 628.83 270.33 628.83 294.57 628.83 303.89 648.04 318.36"/><polygon class="v" points="656.83 328.93 660.24 327.56 662.75 329.45 662.75 320.13 662.75 289.05 656.83 291.42 656.83 328.93"/><polygon class="r" points="631.34 269.32 628.83 270.33 656.83 291.42 662.75 289.05 643.55 274.57 637.27 269.84 634.76 267.95 631.34 269.32"/><polygon class="k" points="728.44 378.96 728.44 410.04 734.72 414.78 734.72 390.53 737.23 389.53 737.23 352.02 709.23 330.92 709.23 355.16 709.23 364.48 728.44 378.96"/><polygon class="v" points="737.23 389.53 740.64 388.16 743.15 390.05 743.15 380.73 743.15 349.64 737.23 352.02 737.23 389.53"/><polygon class="r" points="711.74 329.91 709.23 330.92 737.23 352.02 743.15 349.64 723.95 335.17 717.67 330.43 715.16 328.54 711.74 329.91"/><polygon class="k" points="567.64 257.77 567.64 288.85 573.92 293.59 573.92 269.34 576.43 268.34 576.43 230.83 548.43 209.73 548.44 233.97 548.44 243.29 567.64 257.77"/><polygon class="v" points="576.43 268.34 579.85 266.97 582.35 268.86 582.35 259.54 582.35 228.45 576.43 230.83 576.43 268.34"/><polygon class="r" points="550.94 208.73 548.43 209.73 576.43 230.83 582.35 228.45 563.15 213.98 556.87 209.24 554.36 207.35 550.94 208.73"/><polygon class="k" points="527.44 227.47 527.44 258.55 533.72 263.29 533.72 239.05 536.23 238.04 536.23 200.53 508.24 179.43 508.24 203.67 508.24 213 527.44 227.47"/><polygon class="v" points="536.23 238.04 539.65 236.67 542.15 238.56 542.15 229.24 542.15 198.15 536.23 200.53 536.23 238.04"/><polygon class="r" points="510.74 178.43 508.24 179.43 536.23 200.53 542.15 198.15 522.95 183.68 516.67 178.95 514.16 177.06 510.74 178.43"/><polygon class="k" points="487.24 197.17 487.24 228.26 493.52 232.99 493.52 208.75 496.03 207.74 496.03 170.23 468.04 149.14 468.04 173.38 468.04 182.7 487.24 197.17"/><polygon class="v" points="496.03 207.74 499.45 206.37 501.95 208.26 501.95 198.94 501.95 167.86 496.03 170.23 496.03 207.74"/><polygon class="r" points="470.54 148.13 468.04 149.14 496.03 170.23 501.95 167.86 482.75 153.38 476.47 148.65 473.96 146.76 470.54 148.13"/><polygon class="k" points="447.04 166.88 447.04 197.96 453.32 202.69 453.32 178.45 455.83 177.45 455.83 139.94 427.84 118.84 427.84 143.08 427.84 152.4 447.04 166.88"/><polygon class="v" points="455.83 177.45 459.25 176.07 461.75 177.96 461.75 168.64 461.75 137.56 455.83 139.94 455.83 177.45"/><polygon class="r" points="430.34 117.83 427.84 118.84 455.83 139.94 461.75 137.56 442.55 123.09 436.27 118.35 433.76 116.46 430.34 117.83"/><polygon class="k" points="406.84 136.58 406.84 167.66 413.12 172.39 413.12 148.15 415.63 147.15 415.63 109.64 387.64 88.54 387.64 112.78 387.64 122.1 406.84 136.58"/><polygon class="v" points="415.63 147.15 419.05 145.78 421.55 147.67 421.55 138.35 421.55 107.26 415.63 109.64 415.63 147.15"/><polygon class="r" points="390.14 87.53 387.64 88.54 415.63 109.64 421.55 107.26 402.35 92.79 396.07 88.05 393.56 86.16 390.14 87.53"/><polygon class="k" points="366.64 137.36 372.92 142.1 372.92 117.86 375.43 116.85 375.43 79.34 347.44 58.24 347.44 91.81 366.64 106.28 366.64 137.36"/><polygon class="v" points="381.35 117.37 381.35 108.05 381.36 76.96 375.43 79.34 375.43 116.85 378.85 115.48 381.35 117.37"/><polygon class="r" points="375.43 79.34 381.36 76.96 362.15 62.49 353.36 55.87 347.44 58.24 375.43 79.34"/><polygon class="k" points="607.84 288.06 607.84 319.15 614.12 323.88 614.12 299.64 616.63 298.64 616.63 261.13 588.63 240.03 588.63 264.27 588.63 273.59 607.84 288.06"/><polygon class="v" points="616.63 298.64 620.05 297.27 622.55 299.15 622.55 289.83 622.55 258.75 616.63 261.13 616.63 298.64"/><polygon class="r" points="591.14 239.02 588.63 240.03 616.63 261.13 622.55 258.75 603.35 244.28 597.07 239.54 594.56 237.65 591.14 239.02"/><polygon class="k" points="808.84 439.55 808.84 470.64 815.12 475.37 815.12 451.13 817.63 450.12 817.63 412.61 789.63 391.52 789.63 415.76 789.63 425.08 808.84 439.55"/><polygon class="v" points="817.63 450.12 821.04 448.75 823.55 450.64 823.55 441.32 823.55 410.24 817.63 412.61 817.63 450.12"/><polygon class="r" points="792.14 390.51 789.63 391.52 817.63 412.61 823.55 410.24 804.35 395.76 798.06 391.03 795.56 389.14 792.14 390.51"/><polygon class="k" points="768.64 409.26 768.64 440.34 774.92 445.07 774.92 420.83 777.43 419.83 777.43 382.32 749.43 361.22 749.43 385.46 749.43 394.78 768.64 409.26"/><polygon class="v" points="777.43 419.83 780.84 418.45 783.35 420.34 783.35 411.02 783.35 379.94 777.43 382.32 777.43 419.83"/><polygon class="r" points="751.94 360.21 749.43 361.22 777.43 382.32 783.35 379.94 764.15 365.47 757.87 360.73 755.36 358.84 751.94 360.21"/><polygon class="k" points="857.82 442.91 829.83 421.81 829.83 446.05 829.83 455.38 849.04 469.85 849.04 500.93 855.32 505.67 855.32 481.43 857.83 480.42 857.82 442.91"/><polygon class="v" points="857.83 480.42 861.24 479.05 863.75 480.94 863.75 471.62 863.75 440.53 857.82 442.91 857.83 480.42"/><polygon class="r" points="832.34 420.81 829.83 421.81 857.82 442.91 863.75 440.53 844.55 426.06 838.26 421.33 835.76 419.44 832.34 420.81"/><polygon class="k" points="898.02 473.21 870.03 452.11 870.03 476.35 870.03 485.67 889.24 500.15 889.24 531.23 895.52 535.96 895.52 511.72 898.02 510.72 898.02 473.21"/><polygon class="v" points="898.02 510.72 901.44 509.35 903.95 511.24 903.95 501.92 903.95 470.83 898.02 473.21 898.02 510.72"/><polygon class="r" points="872.54 451.1 870.03 452.11 898.02 473.21 903.95 470.83 884.75 456.36 878.46 451.62 875.96 449.73 872.54 451.1"/><polygon class="k" points="938.22 541.02 938.22 503.51 910.23 482.41 910.23 506.65 910.23 515.97 929.44 530.45 929.44 561.53 935.72 566.26 935.72 542.02 938.22 541.02"/><polygon class="v" points="944.15 541.53 944.15 532.21 944.15 501.13 938.22 503.51 938.22 541.02 941.64 539.64 944.15 541.53"/><polygon class="r" points="912.74 481.4 910.23 482.41 938.22 503.51 944.15 501.13 924.95 486.66 918.66 481.92 916.16 480.03 912.74 481.4"/><polygon class="k" points="978.42 533.8 950.43 512.71 950.43 536.95 950.43 546.27 969.63 560.74 969.63 591.83 978.42 598.45 978.42 533.8"/><polygon class="v" points="978.42 533.8 978.42 598.45 984.35 596.07 984.35 562.51 984.35 531.43 978.42 533.8"/><polygon class="r" points="952.94 511.7 950.43 512.71 978.42 533.8 984.35 531.43 965.14 516.95 958.86 512.22 956.36 510.33 952.94 511.7"/><polygon class="k" points="1018.62 564.1 990.63 543 990.63 567.25 990.63 607.65 1018.62 628.75 1018.62 564.1"/><polygon class="v" points="1024.55 561.72 1018.62 564.1 1018.62 628.75 1024.55 626.37 1024.55 592.81 1024.55 561.72"/><polygon class="r" points="993.14 542 990.63 543 1018.62 564.1 1024.55 561.72 1005.34 547.25 999.06 542.52 996.56 540.63 993.14 542"/></g></g><g class="s"><g><polygon class="k" points="633.32 347.68 633.32 378.76 639.61 383.5 639.61 359.25 642.11 358.25 642.11 320.74 614.12 299.64 614.12 323.88 614.12 333.2 633.32 347.68"/><polygon class="v" points="642.11 358.25 645.53 356.88 648.04 358.77 648.04 349.45 648.04 318.36 642.11 320.74 642.11 358.25"/><polygon class="r" points="642.11 320.74 648.04 318.36 628.83 303.89 622.55 299.15 620.05 297.27 616.63 298.64 614.12 299.64 642.11 320.74"/><polygon class="k" points="673.52 377.98 673.52 409.06 679.81 413.79 679.81 389.55 682.31 388.55 682.31 351.04 654.32 329.94 654.32 354.18 654.32 363.5 673.52 377.98"/><polygon class="v" points="682.31 388.55 685.73 387.18 688.24 389.06 688.24 379.74 688.24 348.66 682.31 351.04 682.31 388.55"/><polygon class="r" points="682.31 351.04 688.24 348.66 669.03 334.19 662.75 329.45 660.24 327.56 656.83 328.93 654.32 329.94 682.31 351.04"/><polygon class="k" points="722.51 381.33 694.52 360.24 694.52 384.48 694.52 393.8 713.72 408.27 713.72 439.36 720 444.09 720 419.85 722.51 418.84 722.51 381.33"/><polygon class="v" points="722.51 418.84 725.93 417.47 728.44 419.36 728.44 410.04 728.44 378.96 722.51 381.33 722.51 418.84"/><polygon class="r" points="722.51 381.33 728.44 378.96 709.23 364.48 702.95 359.75 700.44 357.86 697.03 359.23 694.52 360.24 722.51 381.33"/><polygon class="k" points="762.71 411.63 734.72 390.53 734.72 414.78 734.72 424.1 753.92 438.57 753.92 469.65 760.2 474.39 760.2 450.15 762.71 449.14 762.71 411.63"/><polygon class="v" points="762.71 449.14 766.13 447.77 768.64 449.66 768.64 440.34 768.64 409.26 762.71 411.63 762.71 449.14"/><polygon class="r" points="762.71 411.63 768.64 409.26 749.43 394.78 743.15 390.05 740.64 388.16 737.23 389.53 734.72 390.53 762.71 411.63"/><polygon class="k" points="512.73 256.79 512.73 287.87 519.01 292.6 519.01 268.36 521.51 267.36 521.51 229.85 493.52 208.75 493.52 232.99 493.52 242.31 512.73 256.79"/><polygon class="v" points="521.51 267.36 524.93 265.99 527.44 267.87 527.44 258.55 527.44 227.47 521.51 229.85 521.51 267.36"/><polygon class="r" points="521.51 229.85 527.44 227.47 508.24 213 501.95 208.26 499.45 206.37 496.03 207.74 493.52 208.75 521.51 229.85"/><polygon class="k" points="472.53 226.49 472.53 257.57 478.81 262.31 478.81 238.06 481.31 237.06 481.31 199.55 453.32 178.45 453.32 202.69 453.32 212.01 472.53 226.49"/><polygon class="v" points="481.31 237.06 484.73 235.69 487.24 237.58 487.24 228.26 487.24 197.17 481.31 199.55 481.31 237.06"/><polygon class="r" points="481.31 199.55 487.24 197.17 468.04 182.7 461.75 177.96 459.25 176.07 455.83 177.45 453.32 178.45 481.31 199.55"/><polygon class="k" points="432.33 196.19 432.33 227.27 438.61 232.01 438.61 207.77 441.12 206.76 441.12 169.25 413.12 148.15 413.12 172.39 413.12 181.72 432.33 196.19"/><polygon class="v" points="441.12 206.76 444.53 205.39 447.04 207.28 447.04 197.96 447.04 166.88 441.12 169.25 441.12 206.76"/><polygon class="r" points="441.12 169.25 447.04 166.88 427.84 152.4 421.55 147.67 419.05 145.78 415.63 147.15 413.12 148.15 441.12 169.25"/><polygon class="k" points="392.13 165.89 392.13 196.98 398.41 201.71 398.41 177.47 400.92 176.46 400.92 138.95 372.92 117.86 372.92 142.1 372.92 151.42 392.13 165.89"/><polygon class="v" points="406.84 176.98 406.84 167.66 406.84 136.58 400.92 138.95 400.92 176.46 404.33 175.09 406.84 176.98"/><polygon class="r" points="400.92 138.95 406.84 136.58 387.64 122.1 381.35 117.37 378.85 115.48 375.43 116.85 372.92 117.86 400.92 138.95"/><polygon class="k" points="351.93 166.68 358.21 171.41 358.21 147.17 360.72 146.17 360.72 108.66 332.72 87.56 332.72 121.12 351.93 135.6 351.93 166.68"/><polygon class="v" points="366.64 146.68 366.64 137.36 366.64 106.28 360.72 108.66 360.72 146.17 364.13 144.8 366.64 146.68"/><polygon class="r" points="360.72 108.66 366.64 106.28 347.44 91.81 338.65 85.18 332.72 87.56 360.72 108.66"/><polygon class="k" points="802.91 441.93 774.92 420.83 774.92 445.07 774.92 454.39 794.12 468.87 794.12 499.95 800.4 504.69 800.4 480.44 802.91 479.44 802.91 441.93"/><polygon class="v" points="808.84 439.55 802.91 441.93 802.91 479.44 806.33 478.07 808.84 479.96 808.84 470.64 808.84 439.55"/><polygon class="r" points="789.63 425.08 783.35 420.34 780.84 418.45 777.43 419.83 774.92 420.83 802.91 441.93 808.84 439.55 789.63 425.08"/><polygon class="k" points="843.11 472.23 815.12 451.13 815.12 475.37 815.12 484.69 834.32 499.17 834.32 530.25 840.6 534.98 840.6 510.74 843.11 509.74 843.11 472.23"/><polygon class="v" points="843.11 509.74 846.53 508.37 849.04 510.26 849.04 500.93 849.04 469.85 843.11 472.23 843.11 509.74"/><polygon class="r" points="821.04 448.75 817.63 450.12 815.12 451.13 843.11 472.23 849.04 469.85 829.83 455.38 823.55 450.64 821.04 448.75"/><polygon class="k" points="883.31 540.03 883.31 502.52 855.32 481.43 855.32 505.67 855.32 514.99 874.52 529.46 874.52 560.55 880.8 565.28 880.8 541.04 883.31 540.03"/><polygon class="v" points="889.24 540.55 889.24 531.23 889.24 500.15 883.31 502.52 883.31 540.03 886.73 538.66 889.24 540.55"/><polygon class="r" points="870.03 485.67 863.75 480.94 861.24 479.05 857.83 480.42 855.32 481.43 883.31 502.52 889.24 500.15 870.03 485.67"/><polygon class="k" points="923.51 532.82 895.52 511.72 895.52 535.96 895.52 545.29 914.72 559.76 914.72 590.84 923.51 597.47 923.51 532.82"/><polygon class="v" points="923.51 532.82 923.51 597.47 929.43 595.09 929.44 561.53 929.44 530.45 923.51 532.82"/><polygon class="r" points="901.44 509.35 898.02 510.72 895.52 511.72 923.51 532.82 929.44 530.45 910.23 515.97 903.95 511.24 901.44 509.35"/><polygon class="k" points="963.71 563.12 935.72 542.02 935.72 566.26 935.72 606.67 963.71 627.77 963.71 563.12"/><polygon class="v" points="963.71 563.12 963.71 627.77 969.63 625.39 969.63 591.83 969.63 560.74 963.71 563.12"/><polygon class="r" points="941.64 539.64 938.22 541.02 935.72 542.02 963.71 563.12 969.63 560.74 950.43 546.27 944.15 541.53 941.64 539.64"/><polygon class="k" points="552.92 287.08 552.92 318.17 559.21 322.9 559.21 298.66 561.71 297.65 561.71 260.14 533.72 239.05 533.72 263.29 533.72 272.61 552.92 287.08"/><polygon class="v" points="561.71 297.65 565.13 296.28 567.64 298.17 567.64 288.85 567.64 257.77 561.71 260.14 561.71 297.65"/><polygon class="r" points="561.71 260.14 567.64 257.77 548.44 243.29 542.15 238.56 539.65 236.67 536.23 238.04 533.72 239.05 561.71 260.14"/><polygon class="k" points="593.12 317.38 593.12 348.46 599.41 353.2 599.41 328.96 601.91 327.95 601.91 290.44 573.92 269.34 573.92 293.59 573.92 302.91 593.12 317.38"/><polygon class="v" points="601.91 327.95 605.33 326.58 607.84 328.47 607.84 319.15 607.84 288.06 601.91 290.44 601.91 327.95"/><polygon class="r" points="601.91 290.44 607.84 288.06 588.63 273.59 582.35 268.86 579.85 266.97 576.43 268.34 573.92 269.34 601.91 290.44"/></g></g><g class="l"><g><polygon class="k" points="627.4 350.05 599.41 328.96 599.41 353.2 599.41 362.52 618.61 376.99 618.61 408.08 624.89 412.81 624.89 388.57 627.4 387.56 627.4 350.05"/><polygon class="v" points="627.4 387.56 630.82 386.19 633.32 388.08 633.32 378.76 633.32 347.68 627.4 350.05 627.4 387.56"/><polygon class="r" points="627.4 350.05 633.32 347.68 614.12 333.2 607.84 328.47 605.33 326.58 601.91 327.95 599.41 328.96 627.4 350.05"/><polygon class="k" points="587.2 319.76 559.21 298.66 559.21 322.9 559.21 332.22 578.41 346.7 578.41 377.78 584.69 382.51 584.69 358.27 587.2 357.27 587.2 319.76"/><polygon class="v" points="587.2 357.27 590.62 355.9 593.12 357.79 593.12 348.46 593.12 317.38 587.2 319.76 587.2 357.27"/><polygon class="r" points="587.2 319.76 593.12 317.38 573.92 302.91 567.64 298.17 565.13 296.28 561.71 297.65 559.21 298.66 587.2 319.76"/><polygon class="k" points="667.6 380.35 639.61 359.25 639.61 383.5 639.61 392.82 658.81 407.29 658.81 438.37 665.09 443.11 665.09 418.87 667.6 417.86 667.6 380.35"/><polygon class="v" points="673.52 377.98 667.6 380.35 667.6 417.86 671.02 416.49 673.52 418.38 673.52 409.06 673.52 377.98"/><polygon class="r" points="654.32 363.5 648.04 358.77 645.53 356.88 642.11 358.25 639.61 359.25 667.6 380.35 673.52 377.98 654.32 363.5"/><polygon class="k" points="498.01 286.1 498.01 317.18 504.29 321.92 504.29 297.68 506.8 296.67 506.8 259.16 478.81 238.06 478.81 262.31 478.81 271.63 498.01 286.1"/><polygon class="v" points="506.8 296.67 510.22 295.3 512.73 297.19 512.73 287.87 512.73 256.79 506.8 259.16 506.8 296.67"/><polygon class="r" points="506.8 259.16 512.73 256.79 493.52 242.31 487.24 237.58 484.73 235.69 481.31 237.06 478.81 238.06 506.8 259.16"/><polygon class="k" points="457.81 255.8 457.81 286.89 464.09 291.62 464.09 267.38 466.6 266.37 466.6 228.86 438.61 207.77 438.61 232.01 438.61 241.33 457.81 255.8"/><polygon class="v" points="466.6 266.37 470.02 265 472.53 266.89 472.53 257.57 472.53 226.49 466.6 228.86 466.6 266.37"/><polygon class="r" points="466.6 228.86 472.53 226.49 453.32 212.01 447.04 207.28 444.53 205.39 441.12 206.76 438.61 207.77 466.6 228.86"/><polygon class="k" points="417.61 225.51 417.61 256.59 423.89 261.32 423.89 237.08 426.4 236.08 426.4 198.57 398.41 177.47 398.41 201.71 398.41 211.03 417.61 225.51"/><polygon class="v" points="432.33 236.6 432.33 227.27 432.33 196.19 426.4 198.57 426.4 236.08 429.82 234.71 432.33 236.6"/><polygon class="r" points="426.4 198.57 432.33 196.19 413.12 181.72 406.84 176.98 404.33 175.09 400.92 176.46 398.41 177.47 426.4 198.57"/><polygon class="k" points="377.41 195.21 377.41 226.29 383.69 231.03 383.69 206.78 386.2 205.78 386.2 168.27 358.21 147.17 358.21 171.41 358.21 180.73 377.41 195.21"/><polygon class="v" points="392.13 206.3 392.13 196.98 392.13 165.89 386.2 168.27 386.2 205.78 389.62 204.41 392.13 206.3"/><polygon class="r" points="386.2 168.27 392.13 165.89 372.92 151.42 366.64 146.68 364.13 144.8 360.72 146.17 358.21 147.17 386.2 168.27"/><polygon class="k" points="337.21 195.99 343.49 200.73 343.49 176.49 346 175.48 346 137.97 318.01 116.87 318.01 150.44 337.21 164.91 337.21 195.99"/><polygon class="v" points="351.93 176 351.93 166.68 351.93 135.6 346 137.97 346 175.48 349.42 174.11 351.93 176"/><polygon class="r" points="346 137.97 351.93 135.6 332.72 121.12 323.93 114.5 318.01 116.87 346 137.97"/><polygon class="k" points="538.21 316.4 538.21 347.48 544.49 352.22 544.49 327.97 547 326.97 547 289.46 519.01 268.36 519.01 292.6 519.01 301.92 538.21 316.4"/><polygon class="v" points="547 326.97 550.42 325.6 552.92 327.49 552.92 318.17 552.92 287.08 547 289.46 547 326.97"/><polygon class="r" points="547 289.46 552.92 287.08 533.72 272.61 527.44 267.87 524.93 265.99 521.51 267.36 519.01 268.36 547 289.46"/><polygon class="k" points="748 440.95 720 419.85 720 444.09 720 453.41 739.21 467.89 739.21 498.97 745.49 503.7 745.49 479.46 748 478.46 748 440.95"/><polygon class="v" points="753.92 438.57 748 440.95 748 478.46 751.42 477.09 753.92 478.98 753.92 469.65 753.92 438.57"/><polygon class="r" points="734.72 424.1 728.44 419.36 725.93 417.47 722.51 418.84 720 419.85 748 440.95 753.92 438.57 734.72 424.1"/><polygon class="k" points="707.8 410.65 679.81 389.55 679.81 413.79 679.81 423.11 699.01 437.59 699.01 468.67 705.29 473.41 705.29 449.16 707.8 448.16 707.8 410.65"/><polygon class="v" points="707.8 448.16 711.22 446.79 713.72 448.68 713.72 439.36 713.72 408.27 707.8 410.65 707.8 448.16"/><polygon class="r" points="685.73 387.18 682.31 388.55 679.81 389.55 707.8 410.65 713.72 408.27 694.52 393.8 688.24 389.06 685.73 387.18"/><polygon class="k" points="788.2 471.24 760.2 450.15 760.2 474.39 760.2 483.71 779.41 498.18 779.41 529.27 785.69 534 785.69 509.76 788.2 508.75 788.2 471.24"/><polygon class="v" points="788.2 508.75 791.62 507.38 794.12 509.27 794.12 499.95 794.12 468.87 788.2 471.24 788.2 508.75"/><polygon class="r" points="766.13 447.77 762.71 449.14 760.2 450.15 788.2 471.24 794.12 468.87 774.92 454.39 768.64 449.66 766.13 447.77"/><polygon class="k" points="828.4 539.05 828.4 501.54 800.4 480.44 800.4 504.69 800.4 514.01 819.61 528.48 819.61 559.56 825.89 564.3 825.89 540.06 828.4 539.05"/><polygon class="v" points="834.32 539.57 834.32 530.25 834.32 499.17 828.4 501.54 828.4 539.05 831.81 537.68 834.32 539.57"/><polygon class="r" points="815.12 484.69 808.84 479.96 806.33 478.07 802.91 479.44 800.4 480.44 828.4 501.54 834.32 499.17 815.12 484.69"/><polygon class="k" points="868.6 531.84 840.6 510.74 840.6 534.98 840.6 544.3 859.81 558.78 859.81 589.86 868.6 596.49 868.6 531.84"/><polygon class="v" points="868.6 531.84 868.6 596.49 874.52 594.11 874.52 560.55 874.52 529.46 868.6 531.84"/><polygon class="r" points="846.53 508.37 843.11 509.74 840.6 510.74 868.6 531.84 874.52 529.46 855.32 514.99 849.04 510.26 846.53 508.37"/><polygon class="k" points="908.8 562.14 880.8 541.04 880.8 565.28 880.8 605.69 908.8 626.78 908.8 562.14"/><polygon class="v" points="908.8 562.14 908.8 626.78 914.72 624.41 914.72 590.84 914.72 559.76 908.8 562.14"/><polygon class="r" points="886.73 538.66 883.31 540.03 880.8 541.04 908.8 562.14 914.72 559.76 895.52 545.29 889.24 540.55 886.73 538.66"/></g></g><g class="ad"><g><polygon class="k" points="572.49 349.07 544.49 327.97 544.49 352.22 544.49 361.54 563.7 376.01 563.7 407.09 569.98 411.83 569.98 387.59 572.49 386.58 572.49 349.07"/><polygon class="v" points="572.49 386.58 575.9 385.21 578.41 387.1 578.41 377.78 578.41 346.7 572.49 349.07 572.49 386.58"/><polygon class="r" points="550.42 325.6 547 326.97 544.49 327.97 572.49 349.07 578.41 346.7 559.21 332.22 552.92 327.49 550.42 325.6"/><polygon class="k" points="612.68 379.37 584.69 358.27 584.69 382.51 584.69 391.84 603.9 406.31 603.9 437.39 610.18 442.13 610.18 417.88 612.69 416.88 612.68 379.37"/><polygon class="v" points="618.61 376.99 612.68 379.37 612.69 416.88 616.1 415.51 618.61 417.4 618.61 408.08 618.61 376.99"/><polygon class="r" points="599.41 362.52 593.12 357.79 590.62 355.9 587.2 357.27 584.69 358.27 612.68 379.37 618.61 376.99 599.41 362.52"/><polygon class="k" points="652.88 409.67 624.89 388.57 624.89 412.81 624.89 422.13 644.1 436.61 644.1 467.69 650.38 472.42 650.38 448.18 652.88 447.18 652.88 409.67"/><polygon class="v" points="652.88 447.18 656.3 445.81 658.81 447.7 658.81 438.37 658.81 407.29 652.88 409.67 652.88 447.18"/><polygon class="r" points="630.82 386.19 627.4 387.56 624.89 388.57 652.88 409.67 658.81 407.29 639.61 392.82 633.32 388.08 630.82 386.19"/><polygon class="k" points="693.08 439.96 665.09 418.87 665.09 443.11 665.09 452.43 684.3 466.9 684.3 497.99 690.58 502.72 690.58 478.48 693.08 477.47 693.08 439.96"/><polygon class="v" points="699.01 437.59 693.08 439.96 693.08 477.47 696.5 476.1 699.01 477.99 699.01 468.67 699.01 437.59"/><polygon class="r" points="679.81 423.11 673.52 418.38 671.02 416.49 667.6 417.86 665.09 418.87 693.08 439.96 699.01 437.59 679.81 423.11"/><polygon class="k" points="443.1 285.12 443.1 316.2 449.38 320.94 449.38 296.69 451.89 295.69 451.89 258.18 423.89 237.08 423.89 261.32 423.89 270.65 443.1 285.12"/><polygon class="v" points="457.81 296.21 457.81 286.89 457.81 255.8 451.89 258.18 451.89 295.69 455.3 294.32 457.81 296.21"/><polygon class="r" points="451.89 258.18 457.81 255.8 438.61 241.33 432.33 236.6 429.82 234.71 426.4 236.08 423.89 237.08 451.89 258.18"/><polygon class="k" points="402.9 254.82 402.9 285.9 409.18 290.64 409.18 266.4 411.69 265.39 411.69 227.88 383.69 206.78 383.69 231.03 383.69 240.35 402.9 254.82"/><polygon class="v" points="417.61 265.91 417.61 256.59 417.61 225.51 411.69 227.88 411.69 265.39 415.1 264.02 417.61 265.91"/><polygon class="r" points="411.69 227.88 417.61 225.51 398.41 211.03 392.13 206.3 389.62 204.41 386.2 205.78 383.69 206.78 411.69 227.88"/><polygon class="k" points="362.7 224.52 362.7 255.61 368.98 260.34 368.98 236.1 371.49 235.09 371.49 197.58 343.49 176.49 343.49 200.73 343.49 210.05 362.7 224.52"/><polygon class="v" points="377.41 235.61 377.41 226.29 377.41 195.21 371.49 197.58 371.49 235.09 374.91 233.72 377.41 235.61"/><polygon class="r" points="371.49 197.58 377.41 195.21 358.21 180.73 351.93 176 349.42 174.11 346 175.48 343.49 176.49 371.49 197.58"/><polygon class="k" points="322.5 225.31 328.78 230.04 328.78 205.8 331.29 204.8 331.29 167.29 303.3 146.19 303.29 179.75 322.5 194.23 322.5 225.31"/><polygon class="v" points="337.21 205.32 337.21 195.99 337.21 164.91 331.29 167.29 331.29 204.8 334.71 203.43 337.21 205.32"/><polygon class="r" points="331.29 167.29 337.21 164.91 318.01 150.44 309.22 143.81 303.3 146.19 331.29 167.29"/><polygon class="k" points="733.28 470.26 705.29 449.16 705.29 473.41 705.29 482.73 724.49 497.2 724.49 528.28 730.78 533.02 730.78 508.78 733.28 507.77 733.28 470.26"/><polygon class="v" points="733.28 507.77 736.7 506.4 739.21 508.29 739.21 498.97 739.21 467.89 733.28 470.26 733.28 507.77"/><polygon class="r" points="711.22 446.79 707.8 448.16 705.29 449.16 733.28 470.26 739.21 467.89 720 453.41 713.72 448.68 711.22 446.79"/><polygon class="k" points="773.48 538.07 773.48 500.56 745.49 479.46 745.49 503.7 745.49 513.03 764.69 527.5 764.69 558.58 770.98 563.32 770.98 539.07 773.48 538.07"/><polygon class="v" points="779.41 538.59 779.41 529.27 779.41 498.18 773.48 500.56 773.48 538.07 776.9 536.7 779.41 538.59"/><polygon class="r" points="760.2 483.71 753.92 478.98 751.42 477.09 748 478.46 745.49 479.46 773.48 500.56 779.41 498.18 760.2 483.71"/><polygon class="k" points="813.68 530.86 785.69 509.76 785.69 534 785.69 543.32 804.89 557.8 804.89 588.88 813.68 595.5 813.68 530.86"/><polygon class="v" points="813.68 530.86 813.68 595.5 819.61 593.13 819.61 559.56 819.61 528.48 813.68 530.86"/><polygon class="r" points="791.62 507.38 788.2 508.75 785.69 509.76 813.68 530.86 819.61 528.48 800.4 514.01 794.12 509.27 791.62 507.38"/><polygon class="k" points="853.88 561.15 825.89 540.06 825.89 564.3 825.89 604.7 853.88 625.8 853.88 561.15"/><polygon class="v" points="853.88 561.15 853.88 625.8 859.81 623.43 859.81 589.86 859.81 558.78 853.88 561.15"/><polygon class="r" points="831.81 537.68 828.4 539.05 825.89 540.06 853.88 561.15 859.81 558.78 840.6 544.3 834.32 539.57 831.81 537.68"/><polygon class="k" points="492.09 288.48 464.09 267.38 464.09 291.62 464.09 300.94 483.3 315.42 483.3 346.5 489.58 351.23 489.58 326.99 492.09 325.99 492.09 288.48"/><polygon class="v" points="492.09 325.99 495.5 324.62 498.01 326.51 498.01 317.18 498.01 286.1 492.09 288.48 492.09 325.99"/><polygon class="r" points="492.09 288.48 498.01 286.1 478.81 271.63 472.53 266.89 470.02 265 466.6 266.37 464.09 267.38 492.09 288.48"/><polygon class="k" points="532.29 318.77 504.29 297.68 504.29 321.92 504.29 331.24 523.5 345.71 523.5 376.8 529.78 381.53 529.78 357.29 532.29 356.28 532.29 318.77"/><polygon class="v" points="538.21 316.4 532.29 318.77 532.29 356.28 535.7 354.91 538.21 356.8 538.21 347.48 538.21 316.4"/><polygon class="r" points="519.01 301.92 512.73 297.19 510.22 295.3 506.8 296.67 504.29 297.68 532.29 318.77 538.21 316.4 519.01 301.92"/></g></g><g class="ae"><g><polygon class="k" points="557.77 378.39 529.78 357.29 529.78 381.53 529.78 390.85 548.98 405.33 548.98 436.41 555.26 441.14 555.26 416.9 557.77 415.9 557.77 378.39"/><polygon class="v" points="563.7 376.01 557.77 378.39 557.77 415.9 561.19 414.53 563.7 416.42 563.7 407.09 563.7 376.01"/><polygon class="r" points="544.49 361.54 538.21 356.8 535.7 354.91 532.29 356.28 529.78 357.29 557.77 378.39 563.7 376.01 544.49 361.54"/><polygon class="k" points="517.57 348.09 489.58 326.99 489.58 351.23 489.58 360.56 508.78 375.03 508.78 406.11 515.06 410.85 515.06 386.6 517.57 385.6 517.57 348.09"/><polygon class="v" points="517.57 385.6 520.99 384.23 523.5 386.12 523.5 376.8 523.5 345.71 517.57 348.09 517.57 385.6"/><polygon class="r" points="495.5 324.62 492.09 325.99 489.58 326.99 517.57 348.09 523.5 345.71 504.29 331.24 498.01 326.51 495.5 324.62"/><polygon class="k" points="597.97 408.68 569.98 387.59 569.98 411.83 569.98 421.15 589.18 435.62 589.18 466.71 595.46 471.44 595.46 447.2 597.97 446.19 597.97 408.68"/><polygon class="v" points="597.97 446.19 601.39 444.82 603.9 446.71 603.9 437.39 603.9 406.31 597.97 408.68 597.97 446.19"/><polygon class="r" points="575.9 385.21 572.49 386.58 569.98 387.59 597.97 408.68 603.9 406.31 584.69 391.84 578.41 387.1 575.9 385.21"/><polygon class="k" points="428.38 314.43 428.38 345.52 434.67 350.25 434.67 326.01 437.17 325 437.17 287.49 409.18 266.4 409.18 290.64 409.18 299.96 428.38 314.43"/><polygon class="v" points="443.1 325.52 443.1 316.2 443.1 285.12 437.17 287.49 437.17 325 440.59 323.63 443.1 325.52"/><polygon class="r" points="437.17 287.49 443.1 285.12 423.89 270.65 417.61 265.91 415.1 264.02 411.69 265.39 409.18 266.4 437.17 287.49"/><polygon class="k" points="388.18 284.14 388.18 315.22 394.47 319.95 394.47 295.71 396.97 294.71 396.97 257.2 368.98 236.1 368.98 260.34 368.98 269.66 388.18 284.14"/><polygon class="v" points="402.9 295.23 402.9 285.9 402.9 254.82 396.97 257.2 396.97 294.71 400.39 293.34 402.9 295.23"/><polygon class="r" points="396.97 257.2 402.9 254.82 383.69 240.35 377.41 235.61 374.91 233.72 371.49 235.09 368.98 236.1 396.97 257.2"/><polygon class="k" points="347.98 253.84 347.98 284.92 354.27 289.66 354.27 265.41 356.77 264.41 356.77 226.9 328.78 205.8 328.78 230.04 328.78 239.37 347.98 253.84"/><polygon class="v" points="362.7 264.93 362.7 255.61 362.7 224.52 356.77 226.9 356.77 264.41 360.19 263.04 362.7 264.93"/><polygon class="r" points="356.77 226.9 362.7 224.52 343.49 210.05 337.21 205.32 334.71 203.43 331.29 204.8 328.78 205.8 356.77 226.9"/><polygon class="k" points="307.78 254.62 314.07 259.36 314.07 235.12 316.57 234.11 316.57 196.6 288.58 175.5 288.58 209.07 307.78 223.54 307.78 254.62"/><polygon class="v" points="322.5 234.63 322.5 225.31 322.5 194.23 316.57 196.6 316.57 234.11 319.99 232.74 322.5 234.63"/><polygon class="r" points="316.57 196.6 322.5 194.23 303.29 179.75 294.51 173.13 288.58 175.5 316.57 196.6"/><polygon class="k" points="477.37 317.79 449.38 296.69 449.38 320.94 449.38 330.26 468.58 344.73 468.58 375.81 474.86 380.55 474.87 356.31 477.37 355.3 477.37 317.79"/><polygon class="v" points="483.3 315.42 477.37 317.79 477.37 355.3 480.79 353.93 483.3 355.82 483.3 346.5 483.3 315.42"/><polygon class="r" points="464.09 300.94 457.81 296.21 455.3 294.32 451.89 295.69 449.38 296.69 477.37 317.79 483.3 315.42 464.09 300.94"/><polygon class="k" points="678.37 469.28 650.38 448.18 650.38 472.42 650.38 481.75 669.58 496.22 669.58 527.3 675.86 532.04 675.86 507.79 678.37 506.79 678.37 469.28"/><polygon class="v" points="678.37 506.79 681.79 505.42 684.3 507.31 684.3 497.99 684.3 466.9 678.37 469.28 678.37 506.79"/><polygon class="r" points="656.3 445.81 652.88 447.18 650.38 448.18 678.37 469.28 684.3 466.9 665.09 452.43 658.81 447.7 656.3 445.81"/><polygon class="k" points="638.17 438.98 610.18 417.88 610.18 442.13 610.18 451.45 629.38 465.92 629.38 497 635.66 501.74 635.66 477.5 638.17 476.49 638.17 438.98"/><polygon class="v" points="644.1 436.61 638.17 438.98 638.17 476.49 641.59 475.12 644.1 477.01 644.1 467.69 644.1 436.61"/><polygon class="r" points="624.89 422.13 618.61 417.4 616.1 415.51 612.69 416.88 610.18 417.88 638.17 438.98 644.1 436.61 624.89 422.13"/><polygon class="k" points="718.57 537.09 718.57 499.58 690.58 478.48 690.58 502.72 690.58 512.04 709.78 526.52 709.78 557.6 716.06 562.33 716.06 538.09 718.57 537.09"/><polygon class="v" points="724.49 537.61 724.49 528.28 724.49 497.2 718.57 499.58 718.57 537.09 721.99 535.72 724.49 537.61"/><polygon class="r" points="705.29 482.73 699.01 477.99 696.5 476.1 693.08 477.47 690.58 478.48 718.57 499.58 724.49 497.2 705.29 482.73"/><polygon class="k" points="758.77 529.87 730.78 508.78 730.78 533.02 730.78 542.34 749.98 556.81 749.98 587.9 758.77 594.52 758.77 529.87"/><polygon class="v" points="758.77 529.87 758.77 594.52 764.69 592.15 764.69 558.58 764.69 527.5 758.77 529.87"/><polygon class="r" points="736.7 506.4 733.28 507.77 730.78 508.78 758.77 529.87 764.69 527.5 745.49 513.03 739.21 508.29 736.7 506.4"/><polygon class="k" points="798.97 560.17 770.98 539.07 770.98 563.32 770.98 603.72 798.97 624.82 798.97 560.17"/><polygon class="v" points="798.97 560.17 798.97 624.82 804.89 622.44 804.89 588.88 804.89 557.8 798.97 560.17"/><polygon class="r" points="776.9 536.7 773.48 538.07 770.98 539.07 798.97 560.17 804.89 557.8 785.69 543.32 779.41 538.59 776.9 536.7"/></g></g><g class="o"><g><polygon class="k" points="502.86 377.4 474.87 356.31 474.86 380.55 474.86 389.87 494.07 404.34 494.07 435.43 500.35 440.16 500.35 415.92 502.86 414.91 502.86 377.4"/><polygon class="v" points="508.78 375.03 502.86 377.4 502.86 414.91 506.28 413.54 508.78 415.43 508.78 406.11 508.78 375.03"/><polygon class="r" points="489.58 360.56 483.3 355.82 480.79 353.93 477.37 355.3 474.87 356.31 502.86 377.4 508.78 375.03 489.58 360.56"/><polygon class="k" points="543.06 407.7 515.06 386.6 515.06 410.85 515.06 420.17 534.27 434.64 534.27 465.73 540.55 470.46 540.55 446.22 543.06 445.21 543.06 407.7"/><polygon class="v" points="543.06 445.21 546.47 443.84 548.98 445.73 548.98 436.41 548.98 405.33 543.06 407.7 543.06 445.21"/><polygon class="r" points="520.99 384.23 517.57 385.6 515.06 386.6 543.06 407.7 548.98 405.33 529.78 390.85 523.5 386.12 520.99 384.23"/><polygon class="k" points="583.26 438 555.26 416.9 555.26 441.14 555.26 450.47 574.47 464.94 574.47 496.02 580.75 500.76 580.75 476.52 583.26 475.51 583.26 438"/><polygon class="v" points="589.18 435.62 583.26 438 583.26 475.51 586.67 474.14 589.18 476.03 589.18 466.71 589.18 435.62"/><polygon class="r" points="569.98 421.15 563.7 416.42 561.19 414.53 557.77 415.9 555.26 416.9 583.26 438 589.18 435.62 569.98 421.15"/><polygon class="k" points="623.46 468.3 595.46 447.2 595.46 471.44 595.46 480.76 614.67 495.24 614.67 526.32 620.95 531.05 620.95 506.81 623.46 505.81 623.46 468.3"/><polygon class="v" points="623.46 505.81 626.87 504.44 629.38 506.33 629.38 497 629.38 465.92 623.46 468.3 623.46 505.81"/><polygon class="r" points="601.39 444.82 597.97 446.19 595.46 447.2 623.46 468.3 629.38 465.92 610.18 451.45 603.9 446.71 601.39 444.82"/><polygon class="k" points="373.47 313.45 373.47 344.54 379.75 349.27 379.75 325.03 382.26 324.02 382.26 286.51 354.27 265.41 354.27 289.66 354.27 298.98 373.47 313.45"/><polygon class="v" points="388.18 324.54 388.18 315.22 388.18 284.14 382.26 286.51 382.26 324.02 385.68 322.65 388.18 324.54"/><polygon class="r" points="382.26 286.51 388.18 284.14 368.98 269.66 362.7 264.93 360.19 263.04 356.77 264.41 354.27 265.41 382.26 286.51"/><polygon class="k" points="333.27 283.15 333.27 314.24 339.55 318.97 339.55 294.73 342.06 293.72 342.06 256.21 314.07 235.12 314.07 259.36 314.07 268.68 333.27 283.15"/><polygon class="v" points="347.98 294.24 347.98 284.92 347.98 253.84 342.06 256.21 342.06 293.72 345.48 292.35 347.98 294.24"/><polygon class="r" points="342.06 256.21 347.98 253.84 328.78 239.37 322.5 234.63 319.99 232.74 316.57 234.11 314.07 235.12 342.06 256.21"/><polygon class="k" points="293.07 283.94 299.35 288.67 299.35 264.43 301.86 263.43 301.86 225.92 273.87 204.82 273.87 238.38 293.07 252.86 293.07 283.94"/><polygon class="v" points="307.78 263.95 307.78 254.62 307.78 223.54 301.86 225.92 301.86 263.43 305.28 262.06 307.78 263.95"/><polygon class="r" points="301.86 225.92 307.78 223.54 288.58 209.07 279.79 202.44 273.87 204.82 301.86 225.92"/><polygon class="k" points="663.66 536.1 663.66 498.6 635.66 477.5 635.66 501.74 635.66 511.06 654.87 525.53 654.87 556.62 661.15 561.35 661.15 537.11 663.66 536.1"/><polygon class="v" points="669.58 536.62 669.58 527.3 669.58 496.22 663.66 498.6 663.66 536.1 667.07 534.73 669.58 536.62"/><polygon class="r" points="650.38 481.75 644.1 477.01 641.59 475.12 638.17 476.49 635.66 477.5 663.66 498.6 669.58 496.22 650.38 481.75"/><polygon class="k" points="703.86 528.89 675.86 507.79 675.86 532.04 675.86 541.36 695.07 555.83 695.07 586.92 703.86 593.54 703.86 528.89"/><polygon class="v" points="703.86 528.89 703.86 593.54 709.78 591.16 709.78 557.6 709.78 526.52 703.86 528.89"/><polygon class="r" points="681.79 505.42 678.37 506.79 675.86 507.79 703.86 528.89 709.78 526.52 690.58 512.04 684.3 507.31 681.79 505.42"/><polygon class="k" points="744.06 559.19 716.06 538.09 716.06 562.33 716.06 602.74 744.05 623.84 744.06 559.19"/><polygon class="v" points="744.06 559.19 744.05 623.84 749.98 621.46 749.98 587.9 749.98 556.81 744.06 559.19"/><polygon class="r" points="721.99 535.72 718.57 537.09 716.06 538.09 744.06 559.19 749.98 556.81 730.78 542.34 724.49 537.61 721.99 535.72"/><polygon class="k" points="422.46 316.81 394.47 295.71 394.47 319.95 394.47 329.28 413.67 343.75 413.67 374.83 419.95 379.57 419.95 355.33 422.46 354.32 422.46 316.81"/><polygon class="v" points="428.38 314.43 422.46 316.81 422.46 354.32 425.88 352.95 428.38 354.84 428.38 345.52 428.38 314.43"/><polygon class="r" points="422.46 316.81 428.38 314.43 409.18 299.96 402.9 295.23 400.39 293.34 396.97 294.71 394.47 295.71 422.46 316.81"/><polygon class="k" points="462.66 347.11 434.67 326.01 434.67 350.25 434.67 359.57 453.87 374.05 453.87 405.13 460.15 409.86 460.15 385.62 462.66 384.62 462.66 347.11"/><polygon class="v" points="462.66 384.62 466.08 383.25 468.58 385.14 468.58 375.81 468.58 344.73 462.66 347.11 462.66 384.62"/><polygon class="r" points="440.59 323.63 437.17 325 434.67 326.01 462.66 347.11 468.58 344.73 449.38 330.26 443.1 325.52 440.59 323.63"/></g></g><g class="u"><g><polygon class="k" points="488.14 406.72 460.15 385.62 460.15 409.86 460.15 419.19 479.35 433.66 479.35 464.74 485.64 469.48 485.64 445.24 488.14 444.23 488.14 406.72"/><polygon class="v" points="488.14 444.23 491.56 442.86 494.07 444.75 494.07 435.43 494.07 404.34 488.14 406.72 488.14 444.23"/><polygon class="r" points="466.08 383.25 462.66 384.62 460.15 385.62 488.14 406.72 494.07 404.34 474.86 389.87 468.58 385.14 466.08 383.25"/><polygon class="k" points="447.94 376.42 419.95 355.33 419.95 379.57 419.95 388.89 439.16 403.36 439.16 434.45 445.44 439.18 445.44 414.94 447.94 413.93 447.94 376.42"/><polygon class="v" points="453.87 374.05 447.94 376.42 447.94 413.93 451.36 412.56 453.87 414.45 453.87 405.13 453.87 374.05"/><polygon class="r" points="434.67 359.57 428.38 354.84 425.88 352.95 422.46 354.32 419.95 355.33 447.94 376.42 453.87 374.05 434.67 359.57"/><polygon class="k" points="528.34 437.02 500.35 415.92 500.35 440.16 500.35 449.48 519.55 463.96 519.55 495.04 525.84 499.77 525.84 475.53 528.34 474.53 528.34 437.02"/><polygon class="v" points="534.27 434.64 528.34 437.02 528.34 474.53 531.76 473.16 534.27 475.05 534.27 465.73 534.27 434.64"/><polygon class="r" points="515.06 420.17 508.78 415.43 506.28 413.54 502.86 414.91 500.35 415.92 528.34 437.02 534.27 434.64 515.06 420.17"/><polygon class="k" points="358.76 342.77 358.76 373.85 365.04 378.58 365.04 354.34 367.55 353.34 367.54 315.83 339.55 294.73 339.55 318.97 339.55 328.29 358.76 342.77"/><polygon class="v" points="373.47 353.86 373.47 344.54 373.47 313.45 367.54 315.83 367.55 353.34 370.96 351.97 373.47 353.86"/><polygon class="r" points="367.54 315.83 373.47 313.45 354.27 298.98 347.98 294.24 345.48 292.35 342.06 293.72 339.55 294.73 367.54 315.83"/><polygon class="k" points="318.56 312.47 318.56 343.55 324.84 348.29 324.84 324.05 327.35 323.04 327.35 285.53 299.35 264.43 299.35 288.67 299.35 298 318.56 312.47"/><polygon class="v" points="333.27 323.56 333.27 314.24 333.27 283.15 327.35 285.53 327.35 323.04 330.76 321.67 333.27 323.56"/><polygon class="r" points="327.35 285.53 333.27 283.15 314.07 268.68 307.78 263.95 305.28 262.06 301.86 263.43 299.35 264.43 327.35 285.53"/><polygon class="k" points="278.36 313.26 284.64 317.99 284.64 293.75 287.15 292.74 287.15 255.23 259.15 234.14 259.15 267.7 278.36 282.17 278.36 313.26"/><polygon class="v" points="293.07 293.26 293.07 283.94 293.07 252.86 287.15 255.23 287.15 292.74 290.56 291.37 293.07 293.26"/><polygon class="r" points="287.15 255.23 293.07 252.86 273.87 238.38 265.08 231.76 259.15 234.14 287.15 255.23"/><polygon class="k" points="407.74 346.13 379.75 325.03 379.75 349.27 379.75 358.59 398.96 373.06 398.96 404.15 405.24 408.88 405.24 384.64 407.74 383.64 407.74 346.13"/><polygon class="v" points="407.74 383.64 411.16 382.26 413.67 384.15 413.67 374.83 413.67 343.75 407.74 346.13 407.74 383.64"/><polygon class="r" points="407.74 346.13 413.67 343.75 394.47 329.28 388.18 324.54 385.68 322.65 382.26 324.02 379.75 325.03 407.74 346.13"/><polygon class="k" points="608.74 535.12 608.74 497.61 580.75 476.52 580.75 500.76 580.75 510.08 599.95 524.55 599.95 555.64 606.24 560.37 606.24 536.13 608.74 535.12"/><polygon class="v" points="614.67 535.64 614.67 526.32 614.67 495.24 608.74 497.61 608.74 535.12 612.16 533.75 614.67 535.64"/><polygon class="r" points="595.46 480.76 589.18 476.03 586.67 474.14 583.26 475.51 580.75 476.52 608.74 497.61 614.67 495.24 595.46 480.76"/><polygon class="k" points="568.54 467.32 540.55 446.22 540.55 470.46 540.55 479.78 559.75 494.25 559.75 525.34 566.04 530.07 566.04 505.83 568.54 504.83 568.54 467.32"/><polygon class="v" points="568.54 504.83 571.96 503.45 574.47 505.34 574.47 496.02 574.47 464.94 568.54 467.32 568.54 504.83"/><polygon class="r" points="546.47 443.84 543.06 445.21 540.55 446.22 568.54 467.32 574.47 464.94 555.26 450.47 548.98 445.73 546.47 443.84"/><polygon class="k" points="648.94 527.91 620.95 506.81 620.95 531.05 620.95 540.38 640.15 554.85 640.15 585.93 648.94 592.56 648.94 527.91"/><polygon class="v" points="648.94 527.91 648.94 592.56 654.87 590.18 654.87 556.62 654.87 525.53 648.94 527.91"/><polygon class="r" points="626.87 504.44 623.46 505.81 620.95 506.81 648.94 527.91 654.87 525.53 635.66 511.06 629.38 506.33 626.87 504.44"/><polygon class="k" points="689.14 558.21 661.15 537.11 661.15 561.35 661.15 601.76 689.14 622.85 689.14 558.21"/><polygon class="v" points="689.14 558.21 689.14 622.85 695.07 620.48 695.07 586.92 695.07 555.83 689.14 558.21"/><polygon class="r" points="667.07 534.73 663.66 536.1 661.15 537.11 689.14 558.21 695.07 555.83 675.86 541.36 669.58 536.62 667.07 534.73"/></g></g><g class="t"><g><polygon class="k" points="433.23 405.74 405.24 384.64 405.24 408.88 405.24 418.2 424.44 432.68 424.44 463.76 430.72 468.5 430.72 444.25 433.23 443.25 433.23 405.74"/><polygon class="v" points="433.23 443.25 436.65 441.88 439.16 443.77 439.16 434.45 439.16 403.36 433.23 405.74 433.23 443.25"/><polygon class="r" points="411.16 382.26 407.74 383.64 405.24 384.64 433.23 405.74 439.16 403.36 419.95 388.89 413.67 384.15 411.16 382.26"/><polygon class="k" points="473.43 436.04 445.44 414.94 445.44 439.18 445.44 448.5 464.64 462.98 464.64 494.06 470.92 498.79 470.92 474.55 473.43 473.55 473.43 436.04"/><polygon class="v" points="479.35 433.66 473.43 436.04 473.43 473.55 476.85 472.18 479.35 474.06 479.35 464.74 479.35 433.66"/><polygon class="r" points="460.15 419.19 453.87 414.45 451.36 412.56 447.94 413.93 445.44 414.94 473.43 436.04 479.35 433.66 460.15 419.19"/><polygon class="k" points="513.63 466.33 485.64 445.24 485.64 469.48 485.64 478.8 504.84 493.27 504.84 524.36 511.12 529.09 511.12 504.85 513.63 503.84 513.63 466.33"/><polygon class="v" points="513.63 503.84 517.05 502.47 519.55 504.36 519.55 495.04 519.55 463.96 513.63 466.33 513.63 503.84"/><polygon class="r" points="491.56 442.86 488.14 444.23 485.64 445.24 513.63 466.33 519.55 463.96 500.35 449.48 494.07 444.75 491.56 442.86"/><polygon class="k" points="553.83 534.14 553.83 496.63 525.84 475.53 525.84 499.77 525.84 509.1 545.04 523.57 545.04 554.65 551.32 559.39 551.32 535.15 553.83 534.14"/><polygon class="v" points="559.75 534.66 559.75 525.34 559.75 494.25 553.83 496.63 553.83 534.14 557.25 532.77 559.75 534.66"/><polygon class="r" points="540.55 479.78 534.27 475.05 531.76 473.16 528.34 474.53 525.84 475.53 553.83 496.63 559.75 494.25 540.55 479.78"/><polygon class="k" points="303.84 341.79 303.84 372.87 310.12 377.6 310.12 353.36 312.63 352.36 312.63 314.85 284.64 293.75 284.64 317.99 284.64 327.31 303.84 341.79"/><polygon class="v" points="318.56 352.87 318.56 343.55 318.56 312.47 312.63 314.85 312.63 352.36 316.05 350.99 318.56 352.87"/><polygon class="r" points="312.63 314.85 318.56 312.47 299.35 298 293.07 293.26 290.56 291.37 287.15 292.74 284.64 293.75 312.63 314.85"/><polygon class="k" points="263.64 342.57 269.92 347.31 269.92 323.06 272.43 322.06 272.43 284.55 244.44 263.45 244.44 297.01 263.64 311.49 263.64 342.57"/><polygon class="v" points="278.36 322.58 278.36 313.26 278.36 282.17 272.43 284.55 272.43 322.06 275.85 320.69 278.36 322.58"/><polygon class="r" points="272.43 284.55 278.36 282.17 259.15 267.7 250.36 261.07 244.44 263.45 272.43 284.55"/><polygon class="k" points="594.03 526.93 566.04 505.83 566.04 530.07 566.04 539.39 585.24 553.87 585.24 584.95 594.03 591.58 594.03 526.93"/><polygon class="v" points="594.03 526.93 594.03 591.58 599.95 589.2 599.95 555.64 599.95 524.55 594.03 526.93"/><polygon class="r" points="571.96 503.45 568.54 504.83 566.04 505.83 594.03 526.93 599.95 524.55 580.75 510.08 574.47 505.34 571.96 503.45"/><polygon class="k" points="634.23 557.23 606.24 536.13 606.24 560.37 606.23 600.78 634.23 621.87 634.23 557.23"/><polygon class="v" points="634.23 557.23 634.23 621.87 640.15 619.5 640.15 585.93 640.15 554.85 634.23 557.23"/><polygon class="r" points="612.16 533.75 608.74 535.12 606.24 536.13 634.23 557.23 640.15 554.85 620.95 540.38 614.67 535.64 612.16 533.75"/><polygon class="k" points="344.04 372.08 344.04 403.17 350.32 407.9 350.32 383.66 352.83 382.65 352.83 345.14 324.84 324.05 324.84 348.29 324.84 357.61 344.04 372.08"/><polygon class="v" points="358.76 383.17 358.76 373.85 358.76 342.77 352.83 345.14 352.83 382.65 356.25 381.28 358.76 383.17"/><polygon class="r" points="352.83 345.14 358.76 342.77 339.55 328.29 333.27 323.56 330.76 321.67 327.35 323.04 324.84 324.05 352.83 345.14"/><polygon class="k" points="393.03 375.44 365.04 354.34 365.04 378.58 365.04 387.91 384.24 402.38 384.24 433.46 390.52 438.2 390.52 413.96 393.03 412.95 393.03 375.44"/><polygon class="v" points="398.96 373.06 393.03 375.44 393.03 412.95 396.45 411.58 398.96 413.47 398.96 404.15 398.96 373.06"/><polygon class="r" points="379.75 358.59 373.47 353.86 370.96 351.97 367.55 353.34 365.04 354.34 393.03 375.44 398.96 373.06 379.75 358.59"/></g></g><g class="i"><g><polygon class="k" points="418.52 435.05 390.52 413.96 390.52 438.2 390.52 447.52 409.73 461.99 409.73 493.08 416.01 497.81 416.01 473.57 418.52 472.56 418.52 435.05"/><polygon class="v" points="424.44 432.68 418.52 435.05 418.52 472.56 421.93 471.19 424.44 473.08 424.44 463.76 424.44 432.68"/><polygon class="r" points="405.24 418.2 398.96 413.47 396.45 411.58 393.03 412.95 390.52 413.96 418.52 435.05 424.44 432.68 405.24 418.2"/><polygon class="k" points="378.32 404.76 350.32 383.66 350.32 407.9 350.32 417.22 369.53 431.7 369.53 462.78 375.81 467.51 375.81 443.27 378.32 442.27 378.32 404.76"/><polygon class="v" points="378.32 442.27 381.73 440.9 384.24 442.79 384.24 433.46 384.24 402.38 378.32 404.76 378.32 442.27"/><polygon class="r" points="356.25 381.28 352.83 382.65 350.32 383.66 378.32 404.76 384.24 402.38 365.04 387.91 358.76 383.17 356.25 381.28"/><polygon class="k" points="458.72 465.35 430.72 444.25 430.72 468.5 430.72 477.82 449.93 492.29 449.93 523.37 456.21 528.11 456.21 503.87 458.72 502.86 458.72 465.35"/><polygon class="v" points="458.72 502.86 462.13 501.49 464.64 503.38 464.64 494.06 464.64 462.98 458.72 465.35 458.72 502.86"/><polygon class="r" points="436.65 441.88 433.23 443.25 430.72 444.25 458.72 465.35 464.64 462.98 445.44 448.5 439.16 443.77 436.65 441.88"/><polygon class="k" points="289.13 371.1 289.13 402.18 295.41 406.92 295.41 382.68 297.92 381.67 297.92 344.16 269.92 323.06 269.92 347.31 269.92 356.63 289.13 371.1"/><polygon class="v" points="303.84 382.19 303.84 372.87 303.84 341.79 297.92 344.16 297.92 381.67 301.33 380.3 303.84 382.19"/><polygon class="r" points="297.92 344.16 303.84 341.79 284.64 327.31 278.36 322.58 275.85 320.69 272.43 322.06 269.92 323.06 297.92 344.16"/><polygon class="k" points="248.93 371.89 255.21 376.62 255.21 352.38 257.72 351.37 257.72 313.86 229.72 292.77 229.72 326.33 248.93 340.8 248.93 371.89"/><polygon class="v" points="263.64 351.89 263.64 342.57 263.64 311.49 257.72 313.86 257.72 351.37 261.14 350 263.64 351.89"/><polygon class="r" points="257.72 313.86 263.64 311.49 244.44 297.01 235.65 290.39 229.72 292.77 257.72 313.86"/><polygon class="k" points="338.12 374.46 310.12 353.36 310.12 377.6 310.12 386.92 329.33 401.4 329.33 432.48 335.61 437.22 335.61 412.97 338.12 411.97 338.12 374.46"/><polygon class="v" points="344.04 372.08 338.12 374.46 338.12 411.97 341.53 410.6 344.04 412.49 344.04 403.17 344.04 372.08"/><polygon class="r" points="338.12 374.46 344.04 372.08 324.84 357.61 318.56 352.87 316.05 350.99 312.63 352.36 310.12 353.36 338.12 374.46"/><polygon class="k" points="539.11 525.95 511.12 504.85 511.12 529.09 511.12 538.41 530.33 552.89 530.33 583.97 539.11 590.59 539.11 525.95"/><polygon class="v" points="539.11 525.95 539.11 590.59 545.04 588.22 545.04 554.65 545.04 523.57 539.11 525.95"/><polygon class="r" points="517.05 502.47 513.63 503.84 511.12 504.85 539.11 525.95 545.04 523.57 525.84 509.1 519.55 504.36 517.05 502.47"/><polygon class="k" points="498.92 533.16 498.92 495.65 470.92 474.55 470.92 498.79 470.92 508.11 490.13 522.59 490.13 553.67 496.41 558.41 496.41 534.16 498.92 533.16"/><polygon class="v" points="504.84 533.68 504.84 524.36 504.84 493.27 498.92 495.65 498.92 533.16 502.33 531.79 504.84 533.68"/><polygon class="r" points="485.64 478.8 479.35 474.06 476.85 472.18 473.43 473.55 470.92 474.55 498.92 495.65 504.84 493.27 485.64 478.8"/><polygon class="k" points="579.31 556.24 551.32 535.15 551.32 559.39 551.32 599.79 579.31 620.89 579.31 556.24"/><polygon class="v" points="579.31 556.24 579.31 620.89 585.24 618.51 585.24 584.95 585.24 553.87 579.31 556.24"/><polygon class="r" points="557.25 532.77 553.83 534.14 551.32 535.15 579.31 556.24 585.24 553.87 566.04 539.39 559.75 534.66 557.25 532.77"/></g></g><g class="y"><polygon class="ab" points="269.92 356.63 269.92 347.31 263.64 342.57 263.64 351.89 269.92 356.63"/><polygon class="ab" points="504.84 533.68 511.12 538.41 511.12 529.09 504.84 524.36 504.84 533.68"/><polygon class="ab" points="464.64 503.38 470.92 508.11 470.92 498.79 464.64 494.06 464.64 503.38"/><polygon class="ab" points="310.12 386.92 310.12 377.6 303.84 372.87 303.84 382.19 310.12 386.92"/><polygon class="ab" points="344.04 412.49 350.32 417.22 350.32 407.9 344.04 403.17 344.04 412.49"/><polygon class="ab" points="424.44 473.08 430.72 477.82 430.72 468.5 424.44 463.76 424.44 473.08"/><polygon class="ab" points="384.24 442.79 390.52 447.52 390.52 438.2 384.24 433.46 384.24 442.79"/><polygon class="k" points="363.6 434.07 335.61 412.97 335.61 437.22 335.61 446.54 354.81 461.01 354.81 492.09 361.1 496.83 361.09 472.59 363.6 471.58 363.6 434.07"/><polygon class="v" points="369.53 431.7 363.6 434.07 363.6 471.58 367.02 470.21 369.53 472.1 369.53 462.78 369.53 431.7"/><polygon class="r" points="350.32 417.22 344.04 412.49 341.53 410.6 338.12 411.97 335.61 412.97 363.6 434.07 369.53 431.7 350.32 417.22"/><polygon class="k" points="403.8 464.37 375.81 443.27 375.81 467.51 375.81 476.83 395.01 491.31 395.01 522.39 401.29 527.13 401.29 502.88 403.8 501.88 403.8 464.37"/><polygon class="v" points="403.8 501.88 407.22 500.51 409.73 502.4 409.73 493.08 409.73 461.99 403.8 464.37 403.8 501.88"/><polygon class="r" points="381.73 440.9 378.32 442.27 375.81 443.27 403.8 464.37 409.73 461.99 390.52 447.52 384.24 442.79 381.73 440.9"/><polygon class="k" points="444 532.18 444 494.67 416.01 473.57 416.01 497.81 416.01 507.13 435.21 521.61 435.21 552.69 441.49 557.42 441.49 533.18 444 532.18"/><polygon class="v" points="449.93 532.7 449.93 523.37 449.93 492.29 444 494.67 444 532.18 447.42 530.81 449.93 532.7"/><polygon class="r" points="430.72 477.82 424.44 473.08 421.93 471.19 418.52 472.56 416.01 473.57 444 494.67 449.93 492.29 430.72 477.82"/><polygon class="k" points="484.2 524.96 456.21 503.87 456.21 528.11 456.21 537.43 475.41 551.9 475.41 582.99 484.2 589.61 484.2 524.96"/><polygon class="v" points="484.2 524.96 484.2 589.61 490.13 587.23 490.13 553.67 490.13 522.59 484.2 524.96"/><polygon class="r" points="462.13 501.49 458.72 502.86 456.21 503.87 484.2 524.96 490.13 522.59 470.92 508.11 464.64 503.38 462.13 501.49"/><polygon class="k" points="234.21 401.2 240.5 405.94 240.5 381.69 243 380.69 243 343.18 215.01 322.08 215.01 355.65 234.21 370.12 234.21 401.2"/><polygon class="v" points="248.93 381.21 248.93 371.89 248.93 340.8 243 343.18 243 380.69 246.42 379.32 248.93 381.21"/><polygon class="r" points="243 343.18 248.93 340.8 229.72 326.33 220.94 319.71 215.01 322.08 243 343.18"/><polygon class="k" points="524.4 555.26 496.41 534.16 496.41 558.41 496.41 598.81 524.4 619.91 524.4 555.26"/><polygon class="v" points="524.4 555.26 524.4 619.91 530.33 617.53 530.33 583.97 530.33 552.89 524.4 555.26"/><polygon class="r" points="502.33 531.79 498.92 533.16 496.41 534.16 524.4 555.26 530.33 552.89 511.12 538.41 504.84 533.68 502.33 531.79"/><polygon class="k" points="274.41 400.42 274.41 431.5 280.7 436.23 280.7 411.99 283.2 410.99 283.2 373.48 255.21 352.38 255.21 376.62 255.21 385.94 274.41 400.42"/><polygon class="v" points="289.13 411.51 289.13 402.18 289.13 371.1 283.2 373.48 283.2 410.99 286.62 409.62 289.13 411.51"/><polygon class="r" points="283.2 373.48 289.13 371.1 269.92 356.63 263.64 351.89 261.14 350 257.72 351.37 255.21 352.38 283.2 373.48"/><polygon class="k" points="323.4 403.77 295.41 382.68 295.41 406.92 295.41 416.24 314.61 430.71 314.61 461.8 320.9 466.53 320.9 442.29 323.4 441.28 323.4 403.77"/><polygon class="v" points="323.4 441.28 326.82 439.91 329.33 441.8 329.33 432.48 329.33 401.4 323.4 403.77 323.4 441.28"/><polygon class="r" points="323.4 403.77 329.33 401.4 310.12 386.92 303.84 382.19 301.33 380.3 297.92 381.67 295.41 382.68 323.4 403.77"/></g><g class="ac"><polygon class="ab" points="449.93 532.7 456.21 537.43 456.21 528.11 449.93 523.37 449.93 532.7"/><polygon class="ab" points="409.73 502.4 416.01 507.13 416.01 497.81 409.73 493.08 409.73 502.4"/><polygon class="ab" points="255.21 385.94 255.21 376.62 248.93 371.89 248.93 381.21 255.21 385.94"/><polygon class="ab" points="295.41 416.24 295.41 406.92 289.13 402.18 289.13 411.51 295.41 416.24"/><polygon class="ab" points="329.33 441.8 335.61 446.54 335.61 437.22 329.33 432.48 329.33 441.8"/><polygon class="ab" points="369.53 472.1 375.81 476.83 375.81 467.51 369.53 462.78 369.53 472.1"/><polygon class="k" points="348.89 463.39 320.9 442.29 320.9 466.53 320.9 475.85 340.1 490.33 340.1 521.41 346.38 526.14 346.38 501.9 348.89 500.9 348.89 463.39"/><polygon class="v" points="348.89 500.9 352.31 499.53 354.81 501.42 354.81 492.09 354.81 461.01 348.89 463.39 348.89 500.9"/><polygon class="r" points="326.82 439.91 323.4 441.28 320.9 442.29 348.89 463.39 354.81 461.01 335.61 446.54 329.33 441.8 326.82 439.91"/><polygon class="k" points="308.69 433.09 280.7 411.99 280.7 436.23 280.7 445.56 299.9 460.03 299.9 491.11 306.18 495.85 306.18 471.6 308.69 470.6 308.69 433.09"/><polygon class="v" points="314.61 430.71 308.69 433.09 308.69 470.6 312.11 469.23 314.61 471.12 314.61 461.8 314.61 430.71"/><polygon class="r" points="295.41 416.24 289.13 411.51 286.62 409.62 283.2 410.99 280.7 411.99 308.69 433.09 314.61 430.71 295.41 416.24"/><polygon class="k" points="389.09 531.19 389.09 493.68 361.09 472.59 361.1 496.83 361.1 506.15 380.3 520.62 380.3 551.71 386.58 556.44 386.58 532.2 389.09 531.19"/><polygon class="v" points="395.01 531.71 395.01 522.39 395.01 491.31 389.09 493.68 389.09 531.19 392.51 529.82 395.01 531.71"/><polygon class="r" points="375.81 476.83 369.53 472.1 367.02 470.21 363.6 471.58 361.09 472.59 389.09 493.68 395.01 491.31 375.81 476.83"/><polygon class="k" points="219.5 430.52 225.78 435.25 225.78 411.01 228.29 410 228.29 372.49 200.3 351.4 200.3 384.96 219.5 399.43 219.5 430.52"/><polygon class="v" points="234.21 410.52 234.21 401.2 234.21 370.12 228.29 372.49 228.29 410 231.71 408.63 234.21 410.52"/><polygon class="r" points="228.29 372.49 234.21 370.12 215.01 355.65 206.22 349.02 200.3 351.4 228.29 372.49"/><polygon class="k" points="259.7 429.73 259.7 460.81 265.98 465.55 265.98 441.31 268.49 440.3 268.49 402.79 240.5 381.69 240.5 405.94 240.5 415.26 259.7 429.73"/><polygon class="v" points="274.41 440.82 274.41 431.5 274.41 400.42 268.49 402.79 268.49 440.3 271.91 438.93 274.41 440.82"/><polygon class="r" points="268.49 402.79 274.41 400.42 255.21 385.94 248.93 381.21 246.42 379.32 243 380.69 240.5 381.69 268.49 402.79"/><polygon class="k" points="469.49 554.28 441.49 533.18 441.49 557.42 441.49 597.83 469.49 618.93 469.49 554.28"/><polygon class="v" points="469.49 554.28 469.49 618.93 475.41 616.55 475.41 582.99 475.41 551.9 469.49 554.28"/><polygon class="r" points="447.42 530.81 444 532.18 441.49 533.18 469.49 554.28 475.41 551.9 456.21 537.43 449.93 532.7 447.42 530.81"/><polygon class="k" points="429.29 523.98 401.29 502.88 401.29 527.13 401.29 536.45 420.5 550.92 420.5 582 429.29 588.63 429.29 523.98"/><polygon class="v" points="429.29 523.98 429.29 588.63 435.21 586.25 435.21 552.69 435.21 521.61 429.29 523.98"/><polygon class="r" points="407.22 500.51 403.8 501.88 401.29 502.88 429.29 523.98 435.21 521.61 416.01 507.13 409.73 502.4 407.22 500.51"/></g><g class="m"><polygon class="ab" points="354.81 501.42 361.1 506.15 361.1 496.83 354.81 492.09 354.81 501.42"/><polygon class="ab" points="240.5 415.26 240.5 405.94 234.21 401.2 234.21 410.52 240.5 415.26"/><polygon class="ab" points="395.01 531.71 401.29 536.45 401.29 527.13 395.01 522.39 395.01 531.71"/><polygon class="ab" points="274.41 440.82 280.7 445.56 280.7 436.23 274.41 431.5 274.41 440.82"/><polygon class="ab" points="314.61 471.12 320.9 475.85 320.9 466.53 314.61 461.8 314.61 471.12"/><polygon class="k" points="293.97 462.4 265.98 441.31 265.98 465.55 265.98 474.87 285.19 489.34 285.19 520.43 291.47 525.16 291.47 500.92 293.97 499.91 293.97 462.4"/><polygon class="v" points="293.97 499.91 297.39 498.54 299.9 500.43 299.9 491.11 299.9 460.03 293.97 462.4 293.97 499.91"/><polygon class="r" points="271.91 438.93 268.49 440.3 265.98 441.31 293.97 462.4 299.9 460.03 280.7 445.56 274.41 440.82 271.91 438.93"/><polygon class="k" points="334.17 530.21 334.17 492.7 306.18 471.6 306.18 495.85 306.18 505.17 325.39 519.64 325.39 550.73 331.67 555.46 331.67 531.22 334.17 530.21"/><polygon class="v" points="340.1 530.73 340.1 521.41 340.1 490.33 334.17 492.7 334.17 530.21 337.59 528.84 340.1 530.73"/><polygon class="r" points="320.9 475.85 314.61 471.12 312.11 469.23 308.69 470.6 306.18 471.6 334.17 492.7 340.1 490.33 320.9 475.85"/><polygon class="k" points="374.37 523 346.38 501.9 346.38 526.14 346.38 535.47 365.58 549.94 365.58 581.02 374.37 587.65 374.37 523"/><polygon class="v" points="374.37 523 374.37 587.65 380.3 585.27 380.3 551.71 380.3 520.62 374.37 523"/><polygon class="r" points="352.31 499.53 348.89 500.9 346.38 501.9 374.37 523 380.3 520.62 361.1 506.15 354.81 501.42 352.31 499.53"/><polygon class="k" points="414.57 553.3 386.58 532.2 386.58 556.44 386.58 596.85 414.57 617.94 414.57 553.3"/><polygon class="v" points="414.57 553.3 414.57 617.94 420.5 615.57 420.5 582 420.5 550.92 414.57 553.3"/><polygon class="r" points="392.51 529.82 389.09 531.19 386.58 532.2 414.57 553.3 420.5 550.92 401.29 536.45 395.01 531.71 392.51 529.82"/><polygon class="k" points="204.79 459.83 211.07 464.57 211.07 440.33 213.58 439.32 213.58 401.81 185.58 380.71 185.58 414.28 204.79 428.75 204.79 459.83"/><polygon class="v" points="219.5 439.84 219.5 430.52 219.5 399.43 213.58 401.81 213.58 439.32 216.99 437.95 219.5 439.84"/><polygon class="r" points="213.58 401.81 219.5 399.43 200.3 384.96 191.51 378.34 185.58 380.71 213.58 401.81"/><polygon class="k" points="253.78 432.11 225.78 411.01 225.78 435.25 225.78 444.57 244.99 459.05 244.99 490.13 251.27 494.86 251.27 470.62 253.78 469.62 253.78 432.11"/><polygon class="v" points="259.7 429.73 253.78 432.11 253.78 469.62 257.19 468.25 259.7 470.14 259.7 460.81 259.7 429.73"/><polygon class="r" points="253.78 432.11 259.7 429.73 240.5 415.26 234.21 410.52 231.71 408.63 228.29 410 225.78 411.01 253.78 432.11"/></g><g class="h"><polygon class="ab" points="299.9 500.43 306.18 505.17 306.18 495.85 299.9 491.11 299.9 500.43"/><polygon class="ab" points="225.78 444.57 225.78 435.25 219.5 430.52 219.5 439.84 225.78 444.57"/><polygon class="ab" points="340.1 530.73 346.38 535.47 346.38 526.14 340.1 521.41 340.1 530.73"/><polygon class="ab" points="259.7 470.14 265.98 474.87 265.98 465.55 259.7 460.81 259.7 470.14"/><polygon class="k" points="279.26 529.23 279.26 491.72 251.27 470.62 251.27 494.86 251.27 504.19 270.47 518.66 270.47 549.74 276.75 554.48 276.75 530.24 279.26 529.23"/><polygon class="v" points="285.19 529.75 285.19 520.43 285.19 489.34 279.26 491.72 279.26 529.23 282.68 527.86 285.19 529.75"/><polygon class="r" points="265.98 474.87 259.7 470.14 257.19 468.25 253.78 469.62 251.27 470.62 279.26 491.72 285.19 489.34 265.98 474.87"/><polygon class="k" points="239.06 461.42 211.07 440.33 211.07 464.57 211.07 473.89 230.27 488.36 230.27 519.45 236.55 524.18 236.55 499.94 239.06 498.93 239.06 461.42"/><polygon class="v" points="239.06 498.93 242.48 497.56 244.99 499.45 244.99 490.13 244.99 459.05 239.06 461.42 239.06 498.93"/><polygon class="r" points="239.06 461.42 244.99 459.05 225.78 444.57 219.5 439.84 216.99 437.95 213.58 439.32 211.07 440.33 239.06 461.42"/><polygon class="k" points="319.46 522.02 291.47 500.92 291.47 525.16 291.47 534.48 310.67 548.96 310.67 580.04 319.46 586.66 319.46 522.02"/><polygon class="v" points="319.46 522.02 319.46 586.66 325.39 584.29 325.39 550.73 325.39 519.64 319.46 522.02"/><polygon class="r" points="297.39 498.54 293.97 499.91 291.47 500.92 319.46 522.02 325.39 519.64 306.18 505.17 299.9 500.43 297.39 498.54"/><polygon class="k" points="190.07 489.15 196.35 493.88 196.35 469.64 198.86 468.64 198.86 431.13 170.87 410.03 170.87 443.59 190.07 458.06 190.07 489.15"/><polygon class="v" points="204.79 469.15 204.79 459.83 204.79 428.75 198.86 431.13 198.86 468.64 202.28 467.26 204.79 469.15"/><polygon class="r" points="198.86 431.13 204.79 428.75 185.58 414.28 176.79 407.65 170.87 410.03 198.86 431.13"/><polygon class="k" points="359.66 552.32 331.67 531.22 331.67 555.46 331.67 595.86 359.66 616.96 359.66 552.32"/><polygon class="v" points="359.66 552.32 359.66 616.96 365.58 614.59 365.58 581.02 365.58 549.94 359.66 552.32"/><polygon class="r" points="337.59 528.84 334.17 530.21 331.67 531.22 359.66 552.32 365.58 549.94 346.38 535.47 340.1 530.73 337.59 528.84"/></g><g class="x"><polygon class="ab" points="244.99 499.45 251.27 504.19 251.27 494.86 244.99 490.13 244.99 499.45"/><polygon class="ab" points="211.07 473.89 211.07 464.57 204.79 459.83 204.79 469.15 211.07 473.89"/><polygon class="ab" points="285.19 529.75 291.47 534.48 291.47 525.16 285.19 520.43 285.19 529.75"/><polygon class="k" points="224.35 528.25 224.35 490.74 196.35 469.64 196.35 493.88 196.35 503.2 215.56 517.68 215.56 548.76 221.84 553.5 221.84 529.25 224.35 528.25"/><polygon class="v" points="230.27 528.77 230.27 519.45 230.27 488.36 224.35 490.74 224.35 528.25 227.76 526.88 230.27 528.77"/><polygon class="r" points="211.07 473.89 204.79 469.15 202.28 467.26 198.86 468.64 196.35 469.64 224.35 490.74 230.27 488.36 211.07 473.89"/><polygon class="k" points="264.55 521.04 236.55 499.94 236.55 524.18 236.55 533.5 255.76 547.98 255.76 579.06 264.55 585.68 264.55 521.04"/><polygon class="v" points="264.55 521.04 264.55 585.68 270.47 583.31 270.47 549.74 270.47 518.66 264.55 521.04"/><polygon class="r" points="242.48 497.56 239.06 498.93 236.55 499.94 264.55 521.04 270.47 518.66 251.27 504.19 244.99 499.45 242.48 497.56"/><polygon class="k" points="304.75 551.33 276.75 530.24 276.75 554.48 276.75 594.88 304.75 615.98 304.75 551.33"/><polygon class="v" points="304.75 551.33 304.75 615.98 310.67 613.6 310.67 580.04 310.67 548.96 304.75 551.33"/><polygon class="r" points="282.68 527.86 279.26 529.23 276.75 530.24 304.75 551.33 310.67 548.96 291.47 534.48 285.19 529.75 282.68 527.86"/><polygon class="k" points="175.36 518.46 181.64 523.2 181.64 498.96 184.15 497.95 184.15 460.44 156.15 439.34 156.15 472.91 175.36 487.38 175.36 518.46"/><polygon class="v" points="190.07 498.47 190.07 489.15 190.07 458.06 184.15 460.44 184.15 497.95 187.57 496.58 190.07 498.47"/><polygon class="r" points="184.15 460.44 190.07 458.06 170.87 443.59 162.08 436.97 156.15 439.34 184.15 460.44"/></g><g class="q"><polygon class="ab" points="230.27 528.77 236.55 533.5 236.55 524.18 230.27 519.45 230.27 528.77"/><polygon class="ab" points="190.07 498.47 196.35 503.2 196.35 493.88 190.07 489.15 190.07 498.47"/><polygon class="k" points="209.63 520.05 181.64 498.96 181.64 523.2 181.64 532.52 200.84 546.99 200.84 578.08 209.63 584.7 209.63 520.05"/><polygon class="v" points="209.63 520.05 209.63 584.7 215.56 582.32 215.56 548.76 215.56 517.68 209.63 520.05"/><polygon class="r" points="187.57 496.58 184.15 497.95 181.64 498.96 209.63 520.05 215.56 517.68 196.35 503.2 190.07 498.47 187.57 496.58"/><polygon class="k" points="169.43 527.27 169.43 489.76 141.44 468.66 141.44 502.22 160.64 516.7 160.64 547.78 166.93 552.51 166.93 528.27 169.43 527.27"/><polygon class="v" points="175.36 527.79 175.36 518.46 175.36 487.38 169.43 489.76 169.43 527.27 172.85 525.9 175.36 527.79"/><polygon class="r" points="169.43 489.76 175.36 487.38 156.15 472.91 147.37 466.28 141.44 468.66 169.43 489.76"/><polygon class="k" points="249.83 550.35 221.84 529.25 221.84 553.5 221.84 593.9 249.83 615 249.83 550.35"/><polygon class="v" points="249.83 550.35 249.83 615 255.76 612.62 255.76 579.06 255.76 547.98 249.83 550.35"/><polygon class="r" points="227.76 526.88 224.35 528.25 221.84 529.25 249.83 550.35 255.76 547.98 236.55 533.5 230.27 528.77 227.76 526.88"/></g><polygon class="r" points="154.72 519.07 160.64 516.7 141.44 502.22 132.65 495.6 126.73 497.97 154.72 519.07"/><g class="j"><g><polygon class="k" points="154.72 519.07 126.73 497.97 126.73 531.54 145.93 546.01 145.93 577.09 154.72 583.72 154.72 519.07"/><polygon class="v" points="154.72 519.07 154.72 583.72 160.64 581.34 160.64 547.78 160.64 516.7 154.72 519.07"/><polygon class="k" points="194.92 549.37 166.93 528.27 166.93 552.51 166.93 592.92 194.92 614.02 194.92 549.37"/></g><polygon class="v" points="194.92 549.37 194.92 614.02 200.84 611.64 200.84 578.08 200.84 546.99 194.92 549.37"/></g><polygon class="r" points="172.85 525.9 169.43 527.27 166.93 528.27 194.92 549.37 200.84 546.99 181.64 532.52 175.36 527.79 172.85 525.9"/><g><polygon class="k" points="140.01 548.39 112.01 527.29 112.01 591.94 140.01 613.03 140.01 548.39"/><polygon class="v" points="140.01 548.39 140.01 613.03 145.93 610.66 145.93 577.09 145.93 546.01 140.01 548.39"/><polygon class="r" points="140.01 548.39 145.93 546.01 126.73 531.54 117.94 524.91 112.01 527.29 140.01 548.39"/></g><g id="e"><path class="p" d="M68.65,597.97l-.52,2.3c5.58-1.33,4.11,3.54,8.35,4.62,1.16,.31,2.29,.74,2.99,1.59,2.73-1.37,4.92-2.89,7.27-4.86-1.41-.67-2.7-3.11-.62-3.68-.32-1.96,1.45-.96,2.69-1.08,.62,.15,.93,.52,.75,1.25-.35,5.25-3.73,9.29-7.73,12.41-2.28,.67-4.94-.95-7.29-1.27-1.53-.42-2.9-1.16-4.04-2.42-1.27,3.81-4.08,7.16-4.17,11.3-.54,7.02-2.71,15.24-8.32,19.78-2.44,1.05-4.68,2.56-6.95,3.94-2.75,1.78-3.54,5.69-2.77,8.69,.27,.88-.75,1.88-1.59,1.28-.76-.72-2.03-1.26-1.99-2.45-.13-.97-.83-1.81-.37-2.81,.73-2.14-1.45-5.47,1.66-6.31,4.34-.79,5.12-5.1,7.99-7.27,1.11-.24,2.23-.47,3.41-.72-1.81-4.12,3.47-11.5,.15-13.08-4.2-3.62,2.08-6.21,1.56-10.04-.12-2.06-.48-4.3-.43-6.33-2.59,.48-7.18-1.02-8.77,1.18-1.11,3.23-6.05,4.68-6.35,7.72,.07,1.24,.45,2.31-.24,3.49l-1.22-1.71c-1.33,1.58,.21,4.51-1.3,5.76-2.48,1.11-3.05-3.35-2.22-4.8,2.72-3.69,3.44-8.63,7.1-11.64,2.24-3.14,6.05-3.44,9.3-5.13,3.86-1.52,4.97-2.06,8.93-.46,1.36-.58,1.53-2.61,.59-3.66-1.88-3.15,1.27-7.57,4.81-5.35,2.84,1.89,2.36,5.56,2.78,8.52-.03,1.49-2.27,.77-3.44,1.21Z"/><path class="w" d="M69.29,618.66l-2.38,1.38c-.2-2.76-.16-5.29,1.51-7.61,.86-.78,3.93-.41,4.92,.21,.44,.26,.89,.89,.91,1.37,.65,5.31-.7,10.36-2.81,15.22,.93,.28,1.8,.9,2.72,.02,.1-.09,.44-.12,.46-.09,.34,.81,1.26,.19,2.48,.88-.44,1.76-1.65,2.42-3.45,2.21-1.44-.05-3.46,1.46-4.75,.14-.27-2.16,.55-4.48,.5-6.69,.14-2.36-1.15-4.72-.11-7.03Z"/></g></g></g></g></g></svg>