<?xml version="1.0" encoding="UTF-8"?><svg xmlns="http://www.w3.org/2000/svg" viewBox="0 0 176 38.48"><defs><style>.d{fill:#fff;}</style></defs><g id="a"/><g id="b"><g id="c"><g><path class="d" d="M57,0c-10.63,0-19.24,8.61-19.24,19.24s8.61,19.24,19.24,19.24,19.24-8.61,19.24-19.24S67.62,0,57,0Zm0,35.42c-8.93,0-16.18-7.24-16.18-16.18S48.06,3.06,57,3.06s16.18,7.24,16.18,16.18-7.24,16.18-16.18,16.18Z"/><path class="d" d="M28.7,33.59l-9.74-13.96c4.58-1.19,9.13-3.86,9.13-9.8C28.09,0,17.58,0,10.14,0H0V1.13c4.79,.57,4.61,.85,5.15,3.76v28.71c-.55,2.9-.37,3.18-5.15,3.76v1.13H15.3v-1.13c-4.79-.57-4.61-.85-5.15-3.76v-12.99c.72,0,2.13,0,3.85-.15l12.58,18.03h9.22v-1.13c-4.74,0-7.1-3.76-7.1-3.76ZM10.14,18.69V2.6c.76-.89,11.85-2.31,11.85,6.91s-7.92,9.19-11.85,9.19Z"/><path class="d" d="M148.63,0h-29.55l-.45,8.99h1.06c1.08-5.99,.92-6.73,11.46-6.73v31.33c-.55,2.9-.37,3.19-5.16,3.76v1.14h15.32v-1.14c-4.79-.57-4.61-.86-5.16-3.76V2.26h.36c10.6,0,10.43,.73,11.51,6.73h1.06l-.45-8.99Z"/><path class="d" d="M153,10.17c0-9.93,9.85-10.17,9.85-10.17,3.56,0,5.52,1.1,7.38,1.81,1.86,.71,2.49,.07,2.61-1.81h.85V11.92h-.97c0-6.11-4.13-9.98-9.88-9.98s-5.74,5.93-5.74,5.93c0,3.01,2.3,4.5,5.67,6.71,7.96,4.48,13.23,7.51,13.23,13.14,0,10.51-10.76,10.76-10.76,10.76-3.89,0-6.03-1.16-8.06-1.91-2.03-.75-2.72-.07-2.86,1.91h-.93v-12.62h1.06c0,6.47,4.52,10.57,10.79,10.57s6.28-6.28,6.28-6.28c0-4.29-4.76-6.98-8.76-9.16-6.89-4.24-9.76-7.1-9.76-10.83Z"/><path class="d" d="M97.44,0c-10.63,0-19.24,8.61-19.24,19.24s8.61,19.24,19.24,19.24,19.24-8.61,19.24-19.24S108.06,0,97.44,0Zm0,35.42c-8.93,0-16.18-7.24-16.18-16.18S88.5,3.06,97.44,3.06s16.18,7.24,16.18,16.18-7.24,16.18-16.18,16.18Z"/></g></g></g></svg>