<?xml version="1.0" encoding="UTF-8"?><svg xmlns="http://www.w3.org/2000/svg" viewBox="0 0 272 92.71"><defs><style>.d{fill:#fff;}</style></defs><g id="a"/><g id="b"><g id="c"><g><g><polygon class="d" points="64.95 75.85 64.59 72.26 59.57 72.26 59.57 69.03 64.59 69.03 64.59 65.44 58.13 65.44 55.98 65.44 55.98 67.59 55.98 72.26 54.54 72.26 54.9 75.85 55.98 75.85 55.98 92.71 59.57 92.71 59.57 75.85 64.95 75.85"/><rect class="d" x="160.4" y="65.44" width="3.59" height="27.27"/><path class="d" d="M264.11,65.08c-2.77,0-5.02,2.25-5.02,5.02v1.79h-1.44l.42,3.59h1.01v17.22h3.59v-17.22h2.87v17.22h3.59v-22.61c0-2.77-2.25-5.02-5.02-5.02Zm-1.44,6.82v-1.79c0-.79,.64-1.44,1.44-1.44s1.44,.64,1.44,1.44v1.79h-2.87Z"/><path class="d" d="M9.33,65.08c-2.77,0-5.02,2.25-5.02,5.02v1.79h-1.44l.42,3.59h1.01v17.22h3.59v-17.22h2.87v17.22h3.59v-22.61c0-2.77-2.25-5.02-5.02-5.02Zm-1.44,6.82v-1.79c0-.79,.64-1.44,1.44-1.44s1.44,.64,1.44,1.44v1.79h-2.87Z"/><path class="d" d="M116.62,76.21c0-5.95-4.02-10.77-8.97-10.77h-3.59v27.27h3.59v-3.05l3.59,3.05h5.38l-6.86-6.04c3.94-1.14,6.86-5.39,6.86-10.47Zm-8.97-6.46c2.97,0,5.38,2.89,5.38,6.46s-2.41,6.46-5.38,6.46v-12.92Z"/><path class="d" d="M219.25,69.03c-5.55,0-10.05,4.5-10.05,10.05s4.5,10.05,10.05,10.05v3.59c-7.53,0-13.64-6.1-13.64-13.64s6.1-13.64,13.64-13.64v3.59Z"/></g><g><path class="d" d="M90.07,0c-15.99,0-28.95,12.96-28.95,28.95s12.96,28.95,28.95,28.95,28.95-12.96,28.95-28.95S106.06,0,90.07,0Zm0,53.29c-13.44,0-24.34-10.9-24.34-24.34s10.9-24.34,24.34-24.34,24.34,10.9,24.34,24.34-10.9,24.34-24.34,24.34Z"/><path class="d" d="M47.5,50.55l-14.66-21.01c6.89-1.8,13.73-5.81,13.73-14.75C46.57,0,30.76,0,19.57,0H4.31V1.71c7.2,.86,6.93,1.29,7.75,5.65V50.55c-.82,4.36-.55,4.79-7.75,5.65v1.71H27.32v-1.71c-7.2-.86-6.93-1.29-7.75-5.65V31c1.09,0,3.21,0,5.8-.22l18.93,27.13h13.88v-1.71c-7.14,0-10.68-5.65-10.68-5.65ZM19.57,28.12V3.91c1.14-1.33,17.82-3.48,17.82,10.39s-11.92,13.82-17.82,13.82Z"/><path class="d" d="M227.95,0h-44.46l-.68,13.53h1.59c1.63-9.02,1.38-10.13,17.25-10.13V50.54c-.83,4.37-.55,4.8-7.77,5.66v1.71h23.05v-1.71c-7.21-.86-6.94-1.29-7.77-5.66V3.4h.54c15.95,0,15.69,1.1,17.32,10.13h1.59l-.68-13.53Z"/><path class="d" d="M234.52,15.3c0-14.94,14.82-15.3,14.82-15.3,5.36,0,8.3,1.65,11.1,2.72,2.8,1.06,3.74,.1,3.93-2.72h1.28V17.94h-1.45c0-9.19-6.22-15.02-14.86-15.02s-8.64,8.92-8.64,8.92c0,4.54,3.46,6.77,8.53,10.1,11.98,6.75,19.9,11.3,19.9,19.77,0,15.82-16.19,16.19-16.19,16.19-5.86,0-9.08-1.75-12.13-2.88-3.06-1.13-4.09-.11-4.3,2.88h-1.4v-18.99h1.59c0,9.73,6.8,15.9,16.24,15.9s9.45-9.45,9.45-9.45c0-6.45-7.16-10.5-13.18-13.78-10.37-6.39-14.68-10.68-14.68-16.29Z"/><path class="d" d="M150.92,0c-15.99,0-28.95,12.96-28.95,28.95s12.96,28.95,28.95,28.95,28.95-12.96,28.95-28.95S166.91,0,150.92,0Zm0,53.29c-13.44,0-24.34-10.9-24.34-24.34s10.9-24.34,24.34-24.34,24.34,10.9,24.34,24.34-10.9,24.34-24.34,24.34Z"/></g><polygon class="d" points="233.66 61.14 229.26 61.14 210.89 61.14 190.92 61.14 172.55 61.14 168.15 61.14 142.19 61.14 129.81 61.14 103.85 61.14 99.45 61.14 81.08 61.14 61.11 61.14 42.74 61.14 38.34 61.14 0 61.14 0 61.85 38.34 61.85 42.74 61.85 61.11 61.85 81.08 61.85 99.45 61.85 103.85 61.85 129.81 61.85 142.19 61.85 168.15 61.85 172.55 61.85 190.92 61.85 210.89 61.85 229.26 61.85 233.66 61.85 272 61.85 272 61.14 233.66 61.14"/></g></g></g></svg>