<?xml version="1.0" standalone="no"?>
<!DOCTYPE svg PUBLIC "-//W3C//DTD SVG 20010904//EN"
 "http://www.w3.org/TR/2001/REC-SVG-20010904/DTD/svg10.dtd">
<svg version="1.0" xmlns="http://www.w3.org/2000/svg"
 width="674.000000pt" height="674.000000pt" viewBox="0 0 674.000000 674.000000"
 preserveAspectRatio="xMidYMid meet">
<metadata>
Created by potrace 1.14, written by Peter Selinger 2001-2017
</metadata>
<g transform="translate(0.000000,674.000000) scale(0.100000,-0.100000)"
fill="#000000" stroke="none">
<path d="M249 6730 c-4 -22 -3 -192 1 -195 3 -2 32 -6 65 -10 33 -3 69 -8 80
-10 11 -2 43 -7 70 -10 75 -9 107 -14 135 -20 14 -3 41 -8 60 -11 75 -11 75
-12 -7 -75 -319 -244 -529 -585 -614 -995 l-23 -109 -2 -1901 c-1 -1170 2
-1922 8 -1955 56 -318 125 -499 276 -723 89 -133 276 -324 395 -404 43 -28 39
-34 -34 -46 -19 -3 -45 -8 -59 -10 -29 -6 -223 -33 -295 -42 -27 -3 -52 -8
-55 -11 -9 -8 -6 -185 4 -190 7 -5 6102 -8 6232 -4 19 1 20 7 20 100 l-1 99
-70 1 c-79 2 -222 23 -305 46 -94 25 -100 27 -100 34 0 3 24 22 53 41 52 35
249 225 301 290 182 229 302 515 343 820 10 71 10 3775 1 3855 -8 62 -16 109
-23 135 -2 8 -7 31 -10 50 -11 67 -87 274 -132 359 -197 373 -460 612 -863
784 -94 40 -288 88 -420 103 -72 8 -5029 12 -5031 4z"/>
</g>
</svg>
